<svg width="535" height="489" viewBox="0 0 535 489" fill="none" xmlns="http://www.w3.org/2000/svg">
<path d="M442.373 447.99C469.653 424.926 489.922 393.423 505.224 362.874C527.955 317.493 540.055 260.87 508.326 216.745C490.021 191.293 461.428 175.225 429.688 169.173C399.151 163.36 369.454 164.616 343.189 146.42C316.627 127.996 293.509 105.014 269.729 83.6213C208.59 28.6073 97.5053 44.3849 45.9154 118.457C-5.67456 192.528 8.37936 288.751 58.0594 333.385C102.672 373.483 164.916 381.32 214.176 412.667C238.585 428.237 255.653 451.146 281.52 464.816C311.604 480.708 348.489 487.227 382.381 479.11C405.455 473.577 425.283 462.439 442.373 447.99Z" fill="#92E3A9"/>
<path opacity="0.7" d="M442.373 447.99C469.653 424.926 489.922 393.423 505.224 362.874C527.955 317.493 540.055 260.87 508.326 216.745C490.021 191.293 461.428 175.225 429.688 169.173C399.151 163.36 369.454 164.616 343.189 146.42C316.627 127.996 293.509 105.014 269.729 83.6213C208.59 28.6073 97.5053 44.3849 45.9154 118.457C-5.67456 192.528 8.37936 288.751 58.0594 333.385C102.672 373.483 164.916 381.32 214.176 412.667C238.585 428.237 255.653 451.146 281.52 464.816C311.604 480.708 348.489 487.227 382.381 479.11C405.455 473.577 425.283 462.439 442.373 447.99Z" fill="white"/>
<path d="M493.223 460.716L488.95 423.006" stroke="#263238" stroke-width="0.985332" stroke-linecap="round" stroke-linejoin="round"/>
<path d="M488.928 424.065C488.928 424.065 481.256 418.449 481.256 405.609C481.256 392.769 491.49 382.347 491.49 382.347C491.49 382.347 502.585 395.187 500.024 408.017C497.462 420.847 488.928 424.065 488.928 424.065Z" fill="#92E3A9" stroke="#263238" stroke-width="0.985332" stroke-linecap="round" stroke-linejoin="round"/>
<path d="M488.95 423.006L490.905 394.668" stroke="#263238" stroke-width="0.985332" stroke-linecap="round" stroke-linejoin="round"/>
<path d="M497.164 457.934C500.889 448.908 505.436 440.202 510.755 431.912" stroke="#263238" stroke-width="0.985332" stroke-linecap="round" stroke-linejoin="round"/>
<path d="M506.736 438.731C506.736 438.731 502.475 430.5 508.502 419.009C514.53 407.519 528.617 402.401 528.617 402.401C528.617 402.401 532.536 418.522 524.201 428.974C515.866 439.427 506.736 438.731 506.736 438.731Z" fill="#92E3A9" stroke="#263238" stroke-width="0.985332" stroke-linecap="round" stroke-linejoin="round"/>
<path d="M506.736 438.731L522.269 414.723" stroke="#263238" stroke-width="0.985332" stroke-linecap="round" stroke-linejoin="round"/>
<path d="M486.301 461.298C483.986 454.047 480.84 447.055 476.917 440.444L470.944 430.77" stroke="#263238" stroke-width="0.985332" stroke-linecap="round" stroke-linejoin="round"/>
<path d="M475.747 438.254C471.034 439.615 466.031 439.832 461.205 438.884C456.379 437.937 451.887 435.856 448.147 432.836C434.899 422.373 435.638 401.021 435.638 401.021C435.638 401.021 461.317 397.575 471.684 411.256C474.689 415.086 476.634 419.559 477.343 424.272C478.052 428.985 477.504 433.79 475.747 438.254Z" fill="#92E3A9" stroke="#263238" stroke-width="0.985332" stroke-linecap="round" stroke-linejoin="round"/>
<path d="M475.747 438.254L445.309 408.432" stroke="#263238" stroke-width="0.985332" stroke-linecap="round" stroke-linejoin="round"/>
<path d="M507.266 452.641H474.775V482.597H507.266V452.641Z" fill="#263238" stroke="#263238" stroke-width="0.985332" stroke-linecap="round" stroke-linejoin="round"/>
<path d="M452.982 30.102H235.649V202.254H452.982V30.102Z" fill="white" stroke="#263238" stroke-width="0.985332" stroke-linecap="round" stroke-linejoin="round"/>
<path d="M280.758 126.885H278.992L278.694 124.996H276.552L276.243 126.885H274.642L276.42 116.432H278.981L280.758 126.885ZM276.773 123.574H278.451L277.612 118.28L276.773 123.574Z" fill="#263238"/>
<path d="M283.231 116.432V124.498C283.231 125.245 283.584 125.536 284.136 125.536C284.688 125.536 285.053 125.266 285.053 124.498V116.432H286.698V124.394C286.698 126.065 285.814 127.02 284.092 127.02C282.37 127.02 281.487 126.065 281.487 124.394V116.432H283.231Z" fill="#263238"/>
<path d="M287.382 116.432H292.781V117.927H290.959V126.885H289.248V117.927H287.426L287.382 116.432Z" fill="#263238"/>
<path d="M295.298 126.885H293.543V116.432H295.298V120.917H297.274V116.432H299.063V126.885H297.274V122.411H295.298V126.885Z" fill="#263238"/>
<path d="M302.076 120.834H304.472V122.328H302.076V125.442H305.09V126.937H300.288V116.432H305.046V117.927H302.032L302.076 120.834Z" fill="#263238"/>
<path d="M307.729 119.37V126.937H306.161V116.432H308.369L310.169 122.66V116.432H311.725V126.885H309.926L307.729 119.37Z" fill="#263238"/>
<path d="M312.432 116.432H317.842V117.927H316.009V126.885H314.265V117.927H312.432V116.432Z" fill="#263238"/>
<path d="M318.614 116.432H320.359V126.885H318.614V116.432Z" fill="#263238"/>
<path d="M326.696 122.993V124.384C326.696 126.055 325.813 127.01 324.09 127.01C322.368 127.01 321.485 126.055 321.485 124.384V118.944C321.485 117.263 322.379 116.308 324.09 116.308C325.801 116.308 326.696 117.263 326.696 118.944V119.982H325.051V118.861C325.051 118.114 324.697 117.823 324.145 117.823C323.593 117.823 323.24 118.114 323.24 118.861V124.508C323.24 125.255 323.582 125.546 324.145 125.546C324.709 125.546 325.051 125.287 325.051 124.508V123.013L326.696 122.993Z" fill="#263238"/>
<path d="M333.408 126.885H331.642L331.344 124.996H329.213L328.904 126.885H327.303L329.08 116.432H331.642L333.408 126.885ZM329.423 123.574H331.101L330.262 118.28L329.423 123.574Z" fill="#263238"/>
<path d="M333.11 116.432H338.519V117.927H336.72V126.885H334.976V117.927H333.143L333.11 116.432Z" fill="#263238"/>
<path d="M341.026 120.834H343.421V122.328H341.026V125.442H344.051V126.937H339.281V116.432H344.051V117.927H341.026V120.834Z" fill="#263238"/>
<path d="M349.228 123.418L347.02 116.432H348.864L350.2 121.197L351.536 116.432H353.203L350.995 123.418V126.885H349.25L349.228 123.418Z" fill="#263238"/>
<path d="M353.501 118.944C353.501 118.284 353.78 117.65 354.277 117.183C354.774 116.716 355.448 116.453 356.15 116.453C356.853 116.453 357.527 116.716 358.024 117.183C358.521 117.65 358.8 118.284 358.8 118.944V124.384C358.8 125.044 358.521 125.678 358.024 126.145C357.527 126.612 356.853 126.875 356.15 126.875C355.448 126.875 354.774 126.612 354.277 126.145C353.78 125.678 353.501 125.044 353.501 124.384V118.944ZM355.245 124.487C355.245 125.235 355.598 125.525 356.15 125.525C356.702 125.525 357.056 125.245 357.056 124.487V118.841C357.056 118.093 356.702 117.803 356.15 117.803C355.598 117.803 355.245 118.093 355.245 118.841V124.487Z" fill="#263238"/>
<path d="M361.593 116.432V124.498C361.593 125.245 361.946 125.536 362.498 125.536C363.05 125.536 363.404 125.266 363.404 124.498V116.432H365.06V124.394C365.06 126.065 364.177 127.02 362.454 127.02C360.732 127.02 359.849 126.065 359.849 124.394V116.432H361.593Z" fill="#263238"/>
<path d="M369.906 126.885C369.759 126.471 369.707 126.032 369.752 125.598V123.958C369.752 122.993 369.398 122.629 368.648 122.629H368.04V126.885H366.296V116.432H368.935C370.745 116.432 371.518 117.221 371.518 118.841V119.661C371.575 120.071 371.5 120.487 371.303 120.857C371.107 121.227 370.797 121.533 370.414 121.737C371.286 122.079 371.573 122.868 371.573 123.958V125.598C371.539 126.028 371.603 126.46 371.761 126.864L369.906 126.885ZM367.996 117.927V121.135H368.736C369.387 121.135 369.785 120.865 369.785 120.034V118.996C369.785 118.249 369.52 117.958 368.902 117.958L367.996 117.927Z" fill="#263238"/>
<path d="M380.759 126.885H378.992L378.694 124.996H376.541L376.243 126.885H374.642L376.464 116.432H379.025L380.759 126.885ZM376.773 123.574H378.451L377.568 118.332L376.773 123.574Z" fill="#263238"/>
<path d="M386.621 122.993V124.384C386.621 126.055 385.727 127.01 384.015 127.01C382.304 127.01 381.41 126.055 381.41 124.384V118.944C381.41 117.263 382.293 116.308 384.015 116.308C385.738 116.308 386.621 117.263 386.621 118.944V119.982H384.965V118.861C384.965 118.114 384.612 117.823 384.06 117.823C383.508 117.823 383.154 118.114 383.154 118.861V124.508C383.154 125.255 383.508 125.546 384.06 125.546C384.612 125.546 384.965 125.287 384.965 124.508V123.013L386.621 122.993Z" fill="#263238"/>
<path d="M392.748 122.993V124.384C392.748 126.055 391.865 127.01 390.143 127.01C388.42 127.01 387.537 126.055 387.537 124.384V118.944C387.537 117.263 388.431 116.308 390.143 116.308C391.854 116.308 392.748 117.263 392.748 118.944V119.982H391.092V118.861C391.092 118.114 390.75 117.823 390.187 117.823C389.624 117.823 389.281 118.114 389.281 118.861V124.508C389.281 125.255 389.635 125.546 390.187 125.546C390.739 125.546 391.092 125.287 391.092 124.508V123.013L392.748 122.993Z" fill="#263238"/>
<path d="M393.664 118.944C393.641 118.603 393.692 118.261 393.815 117.939C393.938 117.617 394.13 117.322 394.378 117.072C394.627 116.823 394.928 116.624 395.262 116.488C395.596 116.352 395.956 116.282 396.319 116.282C396.683 116.282 397.043 116.352 397.377 116.488C397.711 116.624 398.011 116.823 398.26 117.072C398.509 117.322 398.701 117.617 398.824 117.939C398.947 118.261 398.998 118.603 398.974 118.944V124.384C398.998 124.725 398.947 125.067 398.824 125.389C398.701 125.711 398.509 126.006 398.26 126.256C398.011 126.505 397.711 126.704 397.377 126.84C397.043 126.976 396.683 127.046 396.319 127.046C395.956 127.046 395.596 126.976 395.262 126.84C394.928 126.704 394.627 126.505 394.378 126.256C394.13 126.006 393.938 125.711 393.815 125.389C393.692 125.067 393.641 124.725 393.664 124.384V118.944ZM395.42 124.487C395.42 125.235 395.762 125.525 396.325 125.525C396.888 125.525 397.23 125.245 397.23 124.487V118.841C397.23 118.093 396.877 117.803 396.325 117.803C395.773 117.803 395.42 118.093 395.42 118.841V124.487Z" fill="#263238"/>
<path d="M401.768 116.432V124.498C401.768 125.245 402.121 125.536 402.673 125.536C403.225 125.536 403.578 125.266 403.578 124.498V116.432H405.234V124.394C405.234 126.065 404.351 127.02 402.629 127.02C400.907 127.02 400.023 126.065 400.023 124.394V116.432H401.768Z" fill="#263238"/>
<path d="M407.983 119.37V126.937H406.416V116.432H408.624L410.423 122.66V116.432H411.98V126.885H410.18L407.983 119.37Z" fill="#263238"/>
<path d="M412.697 116.432H418.107V117.927H416.274V126.885H414.53V117.927H412.697V116.432Z" fill="#263238"/>
<path d="M369.945 84.3757C372.135 71.5959 362.891 59.5672 349.298 57.5087C335.706 55.4503 322.912 64.1417 320.723 76.9214C318.534 89.7012 327.778 101.73 341.37 103.788C354.962 105.847 367.756 97.1554 369.945 84.3757Z" fill="#AA5404"/>
<path d="M356.206 75.2446C356.206 77.2668 355.568 79.2436 354.373 80.9249C353.178 82.6063 351.48 83.9168 349.493 84.6906C347.506 85.4645 345.319 85.667 343.21 85.2725C341.1 84.878 339.163 83.9042 337.642 82.4743C336.121 81.0444 335.085 79.2226 334.666 77.2393C334.246 75.256 334.462 73.2002 335.285 71.332C336.108 69.4637 337.501 67.8669 339.29 66.7434C341.078 65.62 343.18 65.0203 345.331 65.0203C348.215 65.0203 350.981 66.0975 353.021 68.015C355.06 69.9324 356.206 72.533 356.206 75.2446Z" fill="#263238"/>
<path d="M327.435 96.9492C329.758 99.2049 332.539 100.999 335.613 102.224C338.687 103.449 341.992 104.08 345.331 104.08C348.67 104.08 351.975 103.449 355.049 102.224C358.124 100.999 360.905 99.2049 363.227 96.9492V96.2745C363.228 95.0904 362.982 93.9177 362.501 92.8234C362.02 91.7291 361.314 90.7346 360.424 89.8969C359.534 89.0591 358.477 88.3945 357.314 87.9411C356.151 87.4877 354.904 87.2543 353.644 87.2543H337.029C334.485 87.2543 332.044 88.2046 330.245 89.8962C328.446 91.5879 327.435 93.8822 327.435 96.2745V96.9492Z" fill="#263238"/>
<path d="M420.039 145.725H269.652V162.914H420.039V145.725Z" stroke="#263238" stroke-width="0.985332" stroke-miterlimit="10"/>
<path d="M420.039 171.498H269.652V188.688H420.039V171.498Z" fill="#AA5404" stroke="#263238" stroke-width="0.985332" stroke-miterlimit="10"/>
<path d="M320.094 154.807V155.845H317.378V159.561H320.69V160.599H316.119V150.178H320.69V151.216H317.378V154.787L320.094 154.807Z" fill="#BDBDBD"/>
<path d="M322.953 160.641H321.849V150.178H323.472L326.044 157.734V150.178H327.148V160.641H325.857L323.008 152.181L322.953 160.641Z" fill="#BDBDBD"/>
<path d="M329.975 160.641V151.237H327.888V150.199H333.231V151.237H331.2V160.641H329.975Z" fill="#BDBDBD"/>
<path d="M338.078 154.807V155.845H335.362V159.561H338.674V160.599H334.104V150.178H338.674V151.216H335.362V154.787L338.078 154.807Z" fill="#BDBDBD"/>
<path d="M342.317 150.178C344.073 150.178 344.801 151.019 344.801 152.565V153.416C344.877 153.871 344.781 154.337 344.529 154.732C344.276 155.126 343.884 155.425 343.421 155.575C344.437 155.856 344.812 156.613 344.812 157.755V159.385C344.78 159.814 344.856 160.244 345.033 160.641H343.786C343.609 160.237 343.537 159.799 343.576 159.364V157.776C343.576 156.593 342.991 156.219 341.953 156.219H341.136V160.693H339.9V150.178H342.317ZM342.008 155.108C342.991 155.108 343.576 154.807 343.576 153.676V152.638C343.576 151.704 343.212 151.205 342.284 151.205H341.136V155.077L342.008 155.108Z" fill="#BDBDBD"/>
<path d="M353.479 152.7V153.624H352.297V152.586C352.297 151.641 351.9 151.07 350.995 151.07C350.089 151.07 349.692 151.641 349.692 152.586V158.108C349.692 159.053 350.1 159.624 350.995 159.624C351.889 159.624 352.297 159.053 352.297 158.108V156.748H353.479V158.046C353.479 159.634 352.673 160.682 350.962 160.682C349.25 160.682 348.467 159.644 348.467 158.046V152.638C348.467 151.06 349.261 150.012 350.962 150.012C352.662 150.012 353.479 151.122 353.479 152.7Z" fill="#BDBDBD"/>
<path d="M354.505 152.7C354.505 151.102 355.344 150.074 357.045 150.074C358.745 150.074 359.606 151.112 359.606 152.7V158.108C359.606 159.696 358.767 160.745 357.045 160.745C355.322 160.745 354.505 159.707 354.505 158.108V152.7ZM355.731 158.17C355.731 159.125 356.161 159.686 357.045 159.686C357.928 159.686 358.369 159.125 358.369 158.17V152.648C358.369 151.704 357.95 151.133 357.045 151.133C356.139 151.133 355.731 151.704 355.731 152.648V158.17Z" fill="#BDBDBD"/>
<path d="M363.382 150.178C365.115 150.178 365.91 151.164 365.91 152.783V158.056C365.91 159.655 365.115 160.641 363.382 160.641H360.776V150.178H363.382ZM363.382 159.52C364.265 159.52 364.695 159.001 364.695 158.046V152.669C364.695 151.714 364.265 151.185 363.359 151.185H362.024V159.489L363.382 159.52Z" fill="#BDBDBD"/>
<path d="M371.021 154.807V155.845H368.305V159.561H371.617V160.599H367.036V150.178H371.617V151.216H368.305V154.787L371.021 154.807Z" fill="#BDBDBD"/>
<path d="M334.733 176.045C336.455 176.045 337.25 177.083 337.25 178.65V183.923C337.25 185.522 336.455 186.508 334.733 186.508H332.116V176.045H334.733ZM334.733 185.449C335.627 185.449 336.058 184.92 336.058 183.965V178.588C336.058 177.633 335.627 177.114 334.722 177.114H333.408V185.418L334.733 185.449Z" fill="#263238"/>
<path d="M338.321 178.536C338.321 176.937 339.16 175.899 340.86 175.899C342.56 175.899 343.421 176.937 343.421 178.536V183.944C343.472 184.281 343.443 184.625 343.336 184.951C343.229 185.276 343.046 185.575 342.801 185.827C342.556 186.078 342.255 186.275 341.919 186.403C341.584 186.532 341.222 186.589 340.86 186.57C339.16 186.57 338.321 185.532 338.321 183.944V178.536ZM339.535 184.006C339.535 184.961 339.966 185.511 340.86 185.511C341.754 185.511 342.174 184.961 342.174 184.006V178.536C342.174 177.591 341.765 177.021 340.86 177.021C339.955 177.021 339.535 177.591 339.535 178.536V184.006Z" fill="#263238"/>
<path d="M345.684 186.508H344.58V176.045H346.148L348.72 183.612V176.045H349.824V186.508H348.533L345.684 178.048V186.508Z" fill="#263238"/>
<path d="M355.046 180.685V181.723H352.331V185.449H355.643V186.487H351.072V176.045H355.654V177.083H352.342V180.653L355.046 180.685Z" fill="#263238"/>
<path d="M452.982 30.102H235.649V38.4268H452.982V30.102Z" fill="#AA5404" stroke="#263238" stroke-width="0.985332" stroke-linecap="round" stroke-linejoin="round"/>
<path d="M90.2189 296.11V294.574" stroke="#263238" stroke-width="0.985332" stroke-linecap="round" stroke-linejoin="round"/>
<path d="M90.2189 291.533V159.925C90.2189 157.266 90.7761 154.633 91.8586 152.176C92.9412 149.72 94.5279 147.488 96.5282 145.608C98.5284 143.729 100.903 142.238 103.516 141.221C106.129 140.205 108.93 139.682 111.758 139.684H214.176" stroke="#263238" stroke-width="0.985332" stroke-linecap="round" stroke-linejoin="round" stroke-dasharray="2.93 2.93"/>
<path d="M215.843 139.684H217.466" stroke="#263238" stroke-width="0.985332" stroke-linecap="round" stroke-linejoin="round"/>
<path d="M228.23 140.524L210.632 130.964V150.074L228.23 140.524Z" fill="#263238"/>
<path d="M396.226 424.293H397.86" stroke="#263238" stroke-width="0.985332" stroke-linecap="round" stroke-linejoin="round"/>
<path d="M401.094 424.293H407.133C412.863 424.293 418.359 422.153 422.41 418.343C426.462 414.534 428.738 409.367 428.738 403.979V211.949" stroke="#263238" stroke-width="0.985332" stroke-linecap="round" stroke-linejoin="round" stroke-dasharray="2.93 2.93"/>
<path d="M428.738 210.434V208.908" stroke="#263238" stroke-width="0.985332" stroke-linecap="round" stroke-linejoin="round"/>
<path d="M390.065 423.4L407.663 432.95V413.84L390.065 423.4Z" fill="#263238"/>
<path d="M297.848 298.799C298.786 297.119 300.196 295.713 301.925 294.734C303.653 293.755 305.634 293.24 307.652 293.245H402.099C402.099 293.245 408.922 293.245 406.879 305.442C404.837 317.638 376.839 392.105 370.006 414.567C363.172 437.029 361.814 484.538 361.814 484.538H248.477C248.477 484.538 257.563 371.116 297.848 298.799Z" fill="white" stroke="#263238" stroke-width="0.985332" stroke-linecap="round" stroke-linejoin="round"/>
<path d="M385.716 314.431C376.166 335.378 355.908 418.231 352.684 484.538H361.814C361.814 484.538 363.216 436.998 370.006 414.567C376.795 392.136 404.826 317.638 406.879 305.442C408.933 293.245 402.099 293.245 402.099 293.245C402.099 293.245 393.366 297.636 385.716 314.431Z" fill="#263238" stroke="#263238" stroke-width="0.985332" stroke-linecap="round" stroke-linejoin="round"/>
<path d="M206.117 294.927C206.117 294.927 188.784 292.944 177.336 281.63C165.887 270.316 202.22 229.969 221.617 220.461C241.014 210.953 249.007 213.558 269.807 227.976C290.606 242.394 310.909 265.531 310.655 281.049C310.401 296.567 301.414 303.989 313.967 311.639C326.519 319.289 362.046 341.014 367.235 355.941C372.423 370.867 363.426 389.437 342.593 399.537C321.761 409.636 287.581 409.169 254.66 399.163C221.738 389.157 214.574 357.498 218.813 344.616C223.052 331.734 234.269 322.88 230.891 313.082C227.512 303.283 206.117 294.927 206.117 294.927Z" fill="#263238" stroke="#263238" stroke-width="0.985332" stroke-linecap="round" stroke-linejoin="round"/>
<path d="M220.977 339.426C220.977 339.426 203.048 337.08 194.768 342.114C186.488 347.149 145.574 412.896 145.574 412.896L122.975 384.299L103.379 392.572C103.379 392.572 112.564 425.995 123.251 442.624C133.937 459.253 140.031 460.934 143.697 460.384C154.604 458.754 186.201 424.386 186.201 424.386L197.682 460.301L189.888 486.407H335.064L317.455 458.796C317.455 458.796 340.43 359.148 334.578 348.592C328.727 338.035 294.636 339.426 283.916 339.426H253.225C248.573 340.293 243.846 340.752 239.104 340.796C233.041 340.63 226.991 340.173 220.977 339.426Z" fill="#AA5404"/>
<path d="M317.952 342.789L318.25 342.903L315.468 349.567L315.159 349.453L317.952 342.789ZM317.19 350.2L317.488 350.315L320.281 343.651L319.972 343.536L317.19 350.2ZM329.853 371.407L329.533 371.324L328.308 375.424H328.65L329.853 371.407ZM331.951 371.967L331.631 371.884L330.527 375.424H330.858L331.951 371.967ZM318.703 372.196L319.74 375.424H320.083L318.979 372.102L318.703 372.196ZM321.109 371.521L320.789 371.604L322.015 375.424H322.357L321.109 371.521ZM329.997 356.273L333.783 350.045L333.507 349.889L329.721 356.117L329.997 356.273ZM331.896 357.311L335.439 351.488C335.439 351.311 335.439 351.155 335.373 350.989L331.608 357.165L331.896 357.311ZM334.38 366.165L335.009 365.386L335.075 364.815L334.115 365.978L334.38 366.165ZM325.007 359.843L330.284 365.033L330.516 364.826L325.238 359.636L325.007 359.843ZM323.34 361.224L328.606 366.414L328.848 366.206L323.571 361.016L323.34 361.224ZM317.521 361.224L317.61 360.923L313.536 359.978V360.29L317.521 361.224ZM313.481 358.11L318.062 359.2L318.14 358.899L313.536 357.861L313.481 358.11ZM318.592 367.379L318.493 367.089L313.536 368.708V369.03L318.592 367.379ZM317.809 365.137L313.481 366.487V366.808L317.897 365.428L317.809 365.137ZM315.413 423.13L318.195 416.466L317.897 416.352L315.104 423.016L315.413 423.13ZM319.917 417.1L317.135 423.763L317.433 423.878L320.226 417.214L319.917 417.1ZM319.774 448.343L318.924 445.676L318.603 445.759L319.641 448.977L319.774 448.343ZM325.294 403.522L324.984 403.626L327.568 410.363H327.634L327.733 409.896L325.294 403.522ZM327.027 402.931L328.385 406.45C328.385 406.252 328.462 406.055 328.495 405.848L327.336 402.827L327.027 402.931ZM331.862 385.389L332.039 385.939L332.138 385.316L331.862 385.389ZM324.598 384.984L324.156 392.125H324.477L324.918 384.973L324.598 384.984ZM326.331 392.25H326.652L327.093 385.098H326.773L326.331 392.25ZM317.047 384.672L317.201 384.403L313.448 382.503V382.856L317.047 384.672ZM313.448 380.52L318.073 382.856L318.228 382.586L313.536 380.251L313.448 380.52ZM316.34 391.326L316.13 391.098L313.536 393.402V393.807L316.34 391.326ZM314.916 389.779L314.706 389.541L313.448 390.579V390.983L314.916 389.779ZM313.536 402.059V402.381L320.403 399.858L320.281 399.578L313.536 402.059ZM313.536 399.858V400.191L319.608 397.959L319.487 397.668L313.536 399.858ZM317.588 412.854L317.665 412.553L313.536 411.681V411.993L317.588 412.854ZM318.062 410.861L318.14 410.56L313.536 409.584V409.896L318.062 410.861ZM317.521 434.922L317.61 434.631L313.481 433.645V433.967L317.521 434.922ZM313.536 431.808L318.118 432.908L318.195 432.607L313.536 431.507V431.808ZM318.648 441.077L318.548 440.787L313.536 442.344V442.676L318.648 441.077ZM317.963 439.136L317.864 438.846L313.536 440.195V440.517L317.963 439.136ZM327.778 378.289L328.65 375.413H328.308L327.468 378.206L327.778 378.289ZM330.902 375.413H330.571L329.566 378.756L329.875 378.849L330.902 375.413ZM320.856 379.036L321.176 378.953L320.072 375.413H319.729L320.856 379.036ZM323.251 378.361L322.313 375.413H321.971L322.942 378.455L323.251 378.361ZM325.073 477.335L327.656 484.061L327.965 483.957L325.382 477.231L325.073 477.335ZM330.008 483.262L327.424 476.535L327.115 476.639L329.71 483.365L330.008 483.262ZM333.662 484.922L333.342 484.839L332.878 486.396H333.22L333.662 484.922ZM313.536 456.564L317.135 458.381L317.29 458.111L313.536 456.211V456.564ZM313.536 454.239L317.952 456.512L318.018 456.201L313.536 453.897V454.239ZM316.373 465.024L316.164 464.785L313.536 466.996V467.391L316.373 465.024ZM314.949 463.467L314.739 463.239L313.481 464.277V464.681L314.949 463.467ZM320.226 473.183L313.536 475.695V476.027L320.403 473.494L320.226 473.183ZM313.481 473.795L319.553 471.563L319.431 471.283L313.481 473.463V473.795ZM313.481 485.286V485.608L317.135 486.376H317.555L317.61 486.168L313.481 485.286ZM318.007 484.466L318.084 484.165L313.481 483.189V483.511L318.007 484.466ZM236.786 349.422L237.084 349.536L239.877 342.872L239.568 342.758L236.786 349.422ZM238.806 350.169L239.115 350.283L241.897 343.62L241.599 343.505L238.806 350.169ZM310.147 359.459L313.459 360.259V359.947L310.202 359.169L310.147 359.459ZM310.765 357.186L310.677 357.477L313.481 358.152V357.83L310.765 357.186ZM313.536 369.03V368.708L311.328 369.403L311.427 369.694L313.536 369.03ZM310.577 367.452L310.677 367.743L313.481 366.871V366.549L310.577 367.452ZM304.704 375.424H305.079L306.515 373.078L306.239 372.922L304.704 375.424ZM307.221 375.424H307.596L308.402 374.095L308.126 373.939L307.221 375.424ZM290.805 372.559L290.551 372.756L292.88 375.424H293.3L290.805 372.559ZM292.24 371.459L295.695 375.424H296.115L292.494 371.272L292.24 371.459ZM284.004 374.957L283.706 375.061L283.838 375.424H284.192L284.004 374.957ZM285.748 374.365L286.157 375.403H286.499L286.057 374.241L285.748 374.365ZM273.803 375.403L274.741 371.926L274.421 371.853L273.461 375.403H273.803ZM276.53 372.351L275.702 375.403H276L276.806 372.434L276.53 372.351ZM251.502 371.386L251.182 371.303L249.946 375.403H250.288L251.502 371.386ZM253.589 371.947L253.28 371.863L252.176 375.403H252.518L253.589 371.947ZM240.341 372.175L241.379 375.403H241.721L240.617 372.081L240.341 372.175ZM242.737 371.5L242.427 371.583L243.653 375.403H243.984L242.737 371.5ZM251.635 356.252L255.421 350.024L255.134 349.868L251.348 356.096L251.635 356.252ZM253.247 357.124L253.523 357.269L257.309 351.041L257.022 350.886L253.247 357.124ZM296.446 361.691L303.456 364.483L303.578 364.203L296.568 361.411L296.446 361.691ZM295.596 363.57L302.606 366.362L302.728 366.082L295.662 363.3L295.596 363.57ZM301.502 352.816L301.812 352.899L303.887 346.017L303.567 345.924L301.502 352.816ZM303.589 353.377L303.909 353.46L305.974 346.567L305.664 346.484L303.589 353.377ZM292.196 340.568L294.404 347.419L294.713 347.336L292.56 340.464L292.196 340.568ZM294.271 339.976L296.479 346.827L296.788 346.744L294.58 339.893L294.271 339.976ZM270.215 369.32L268.007 362.47L267.698 362.553L269.906 369.414L270.215 369.32ZM272.302 368.729L270.094 361.878L269.773 361.961L271.981 368.822L272.302 368.729ZM280.913 364.764L288.453 363.726V363.425L280.913 364.463V364.764ZM281.222 366.788L288.762 365.75V365.449L281.222 366.487V366.788ZM286.742 358.058L287.062 358.131L288.762 351.155L288.442 351.083L286.742 358.058ZM290.562 351.539L288.862 358.515L289.182 358.587L290.882 351.612L290.562 351.539ZM263.856 354.083L264.132 354.249L268.206 348.197L267.93 348.041L263.856 354.083ZM270.049 349.297L269.773 349.131L265.7 355.183L265.976 355.349L270.049 349.297ZM262.973 342.332L269.95 339.468V339.395H269.354L262.873 342.052L262.973 342.332ZM263.712 343.921L263.845 344.201L270.822 341.346L270.69 341.066L263.712 343.921ZM257.089 339.395H256.746L255.024 345.021L255.344 345.104L257.089 339.395ZM253.28 344.585L254.825 339.395H254.483L252.96 344.46L253.28 344.585ZM283.154 341.595L282.403 339.426H282.061L282.779 341.668L283.154 341.595ZM280.758 342.27L281.078 342.187L280.195 339.436H279.853L280.758 342.27ZM255.764 365.999L256.018 366.186L260.654 360.508L260.389 360.321L255.764 365.999ZM257.486 367.244L257.751 367.431L262.377 361.743L262.123 361.556L257.486 367.244ZM246.645 359.864L251.922 365.054L252.165 364.847L246.888 359.657L246.645 359.864ZM245.011 361.224L250.288 366.414L250.52 366.206L245.254 361.016L245.011 361.224ZM273.913 352.048L273.781 352.328L280.791 355.131L280.924 354.84L273.913 352.048ZM274.631 350.45L281.641 353.242L281.774 352.962L274.764 350.169L274.631 350.45ZM239.204 361.224L239.281 360.923L235.152 359.978V360.29L239.204 361.224ZM235.163 358.11L239.734 359.2L239.822 358.899L235.152 357.861L235.163 358.11ZM240.275 367.379L240.164 367.089L235.152 368.708V369.03L240.275 367.379ZM239.48 365.137L235.163 366.487V366.808L239.579 365.428L239.48 365.137ZM239.568 416.352L236.786 423.016L237.084 423.13L239.877 416.466L239.568 416.352ZM241.599 417.1L238.806 423.763L239.115 423.878L241.897 417.214L241.599 417.1ZM310.379 381.278L313.481 382.856V382.503L310.533 381.008L310.379 381.278ZM311.56 379.202L311.405 379.462L313.481 380.5V380.147L311.56 379.202ZM313.536 393.402L310.456 395.914L310.666 396.142L313.536 393.807V393.402ZM309.241 394.596L313.536 391.108V390.703L309.032 394.357L309.241 394.596ZM313.194 402.235L313.304 402.526L313.536 402.433V402.111L313.194 402.235ZM312.399 400.336L312.509 400.616L313.536 400.242V399.91L312.399 400.336ZM313.503 411.754L310.191 411.048L310.114 411.349L313.492 412.065L313.503 411.754ZM313.503 409.678L310.677 409.076L310.61 409.377L313.503 409.989V409.678ZM313.503 433.708L310.224 432.846L310.147 433.147L313.459 433.946L313.503 433.708ZM310.787 430.946L310.699 431.247L313.536 431.808V431.497L310.787 430.946ZM313.536 442.676V442.344L311.328 443.039L311.427 443.33L313.536 442.676ZM313.536 440.517V440.195L310.632 441.098L310.732 441.389L313.536 440.517ZM268.714 379.057L261.703 376.254L261.582 376.534L268.592 379.337L268.714 379.057ZM260.732 378.424L267.742 381.216L267.864 380.936L260.853 378.143L260.732 378.424ZM306.492 446.714L306.216 446.568L304.704 449.07H305.079L306.492 446.714ZM308.38 447.752L308.104 447.596L307.199 449.091H307.574L308.38 447.752ZM290.529 446.413L292.858 449.091H293.278L290.783 446.215L290.529 446.413ZM292.218 445.115L295.673 449.091H296.093L292.472 444.939L292.218 445.115ZM283.982 448.624L283.684 448.727L283.816 449.091H284.17L283.982 448.624ZM285.726 448.032L286.135 449.07H286.477L286.035 447.907L285.726 448.032ZM274.686 445.613L274.366 445.53L273.406 449.091H273.792L274.686 445.613ZM276.475 446.039L275.647 449.091H276L276.806 446.112L276.475 446.039ZM251.447 445.063L251.127 444.98L249.89 449.132H250.233L251.447 445.063ZM253.534 445.624L253.225 445.541L252.12 449.091H252.463L253.534 445.624ZM240.286 445.852L241.323 449.091H241.666L240.562 445.769L240.286 445.852ZM242.372 445.271L243.598 449.091H243.929L242.681 445.177L242.372 445.271ZM255.079 423.577L251.292 429.805L251.58 429.96L255.366 423.732L255.079 423.577ZM257.287 424.739L257 424.584L253.225 430.812L253.501 430.967L257.287 424.739ZM288.078 390.631L283.22 385.098L282.977 385.295L287.791 390.838L288.078 390.631ZM286.4 391.928L281.52 386.364L281.266 386.562L286.091 392.104L286.4 391.928ZM274.465 388.897L277.049 395.623L277.358 395.52L274.775 388.793L274.465 388.897ZM276.519 388.202L279.102 394.928L279.4 394.824L276.817 388.098L276.519 388.202ZM303.556 437.88L296.545 435.088L296.424 435.368L303.434 438.161L303.556 437.88ZM302.706 439.769L295.695 436.967L295.574 437.257L302.584 440.05L302.706 439.769ZM303.545 419.611L301.48 426.504L301.789 426.587L303.865 419.695L303.545 419.611ZM305.952 420.255L305.642 420.172L303.567 427.054L303.887 427.137L305.952 420.255ZM294.724 420.992L292.516 414.141L292.207 414.224L294.415 421.085L294.724 420.992ZM296.81 420.4L294.602 413.55L294.282 413.633L296.49 420.494L296.81 420.4ZM274.73 402.474L270.944 408.702L271.22 408.847L275.006 402.619L274.73 402.474ZM273.119 401.613L272.832 401.457L269.056 407.685L269.332 407.83L273.119 401.613ZM260.257 407.27L255.432 401.706L255.179 401.903L260.003 407.446L260.257 407.27ZM261.935 405.972L257.122 400.429L256.868 400.626L261.681 406.169L261.935 405.972ZM246.7 403.72L249.283 410.456L249.592 410.353L246.998 403.616L246.7 403.72ZM248.742 403.024L251.326 409.761L251.635 409.657L249.051 402.92L248.742 403.024ZM301.392 408.474L301.712 408.546L303.589 401.613L303.269 401.53L301.392 408.474ZM305.698 402.111L305.377 402.038L303.501 408.972L303.821 409.045L305.698 402.111ZM293.244 407.934L286.234 405.142L286.113 405.422L293.123 408.225L293.244 407.934ZM294.095 406.055L287.04 403.263L286.919 403.543L293.929 406.335L294.095 406.055ZM270.215 442.966L268.007 436.105L267.698 436.199L269.906 443.05L270.215 442.966ZM272.302 442.375L270.094 435.514L269.773 435.607L271.981 442.458L272.302 442.375ZM288.453 437.403V437.102L280.913 438.14V438.441L288.453 437.403ZM288.762 439.427V439.126L281.222 440.164V440.465L288.762 439.427ZM287.04 431.808L288.74 424.833L288.42 424.76L286.72 431.746L287.04 431.808ZM289.16 432.265L290.86 425.289L290.54 425.217L288.84 432.202L289.16 432.265ZM268.184 421.885L267.908 421.719L263.856 427.729L264.132 427.895L268.184 421.885ZM270.027 422.975L269.751 422.809L265.678 428.86L265.954 429.026L270.027 422.975ZM269.928 413.145L269.807 412.864L262.818 415.729L262.951 416.01L269.928 413.145ZM270.8 415.024L270.668 414.743L263.69 417.608L263.823 417.888L270.8 415.024ZM257.387 411.91L257.077 411.816L255.024 418.657L255.344 418.74L257.387 411.91ZM253.225 418.241L255.289 411.349L254.98 411.266L252.904 418.158L253.225 418.241ZM283.088 415.2L280.88 408.349L280.56 408.432L282.768 415.293L283.088 415.2ZM278.506 408.972L280.714 415.823L281.034 415.74L278.826 408.889L278.506 408.972ZM267.919 391.326L261.836 395.644L262.034 395.883L268.117 391.575L267.919 391.326ZM263.348 397.554L269.42 393.236L269.232 392.997L263.149 397.305L263.348 397.554ZM258.093 391.627L255.984 384.745L255.664 384.838L257.784 391.71L258.093 391.627ZM253.578 385.399L255.686 392.364L256.007 392.281L253.92 385.378L253.578 385.399ZM246.313 384.994L245.872 392.136H246.192L246.634 384.984L246.313 384.994ZM248.036 392.26H248.367L248.809 385.108H248.477L248.036 392.26ZM260.544 434.102L260.279 433.915L255.653 439.603L255.907 439.79L260.544 434.102ZM262.266 435.348L262.012 435.161L257.376 440.849L257.641 441.036L262.266 435.348ZM246.534 433.458L251.811 438.648L252.054 438.43L246.777 433.24L246.534 433.458ZM245.011 434.922L250.288 440.112L250.52 439.904L245.254 434.714L245.011 434.922ZM300.454 395.052L300.2 394.866L295.408 400.429L295.662 400.626L300.454 395.052ZM298.511 393.578L293.719 399.142L293.973 399.339L298.753 393.765L298.511 393.578ZM299.846 383.022H299.526L298.665 390.132H298.996L299.846 383.022ZM297.362 382.752L296.512 389.873H296.832L297.683 382.762L297.362 382.752ZM280.924 428.528L273.913 425.736L273.781 426.016L280.791 428.808L280.924 428.528ZM274.631 424.127L281.641 426.919L281.774 426.639L274.764 423.847L274.631 424.127ZM238.762 384.776L238.917 384.506L235.163 382.607V382.96L238.762 384.776ZM235.163 380.624L239.789 382.96L239.943 382.69L235.152 380.251L235.163 380.624ZM238.056 391.43L237.835 391.201L235.152 393.402V393.807L238.056 391.43ZM236.631 389.883L236.411 389.644L235.163 390.682V391.087L236.631 389.883ZM241.897 399.599L235.163 402.08V402.401L242.019 399.879L241.897 399.599ZM241.224 397.98L241.114 397.689L235.152 399.858V400.191L241.224 397.98ZM239.215 412.875L239.281 412.574L235.163 411.702V412.013L239.215 412.875ZM235.152 409.896L239.678 410.861L239.756 410.56L235.152 409.584V409.896ZM239.204 434.922L239.281 434.631L235.163 433.645V433.967L239.204 434.922ZM235.152 431.808L239.723 432.908L239.811 432.607L235.152 431.507V431.808ZM240.264 441.077L240.153 440.787L235.152 442.344V442.676L240.264 441.077ZM239.579 439.136L239.469 438.846L235.152 440.195V440.517L239.579 439.136ZM302.419 379.129L302.695 379.275L305.046 375.413H304.704L302.419 379.129ZM304.307 380.167L304.583 380.313L307.563 375.434H307.188L304.307 380.167ZM295.596 378.091L293.267 375.413H292.847L295.342 378.278L295.596 378.091ZM297.031 376.991L297.285 376.794L296.082 375.413H295.662L297.031 376.991ZM286.565 381.683L284.159 375.455H283.805L286.256 381.828L286.565 381.683ZM288.299 381.091L288.608 380.988L286.466 375.413H286.124L288.299 381.091ZM272.511 378.797L272.832 378.87L273.77 375.413H273.428L272.511 378.797ZM274.62 379.306L274.94 379.379L276.044 375.413H275.702L274.62 379.306ZM249.394 378.268L250.255 375.393H249.912L249.073 378.185L249.394 378.268ZM252.518 375.393H252.176L251.171 378.735L251.491 378.828L252.518 375.393ZM242.472 379.015L242.781 378.932L241.677 375.393H241.334L242.472 379.015ZM244.867 378.341L243.918 375.393H243.587L244.547 378.434L244.867 378.341ZM310.522 454.686L310.368 454.955L313.47 456.533V456.18L310.522 454.686ZM311.549 452.89L311.394 453.16L313.47 454.198V453.855L311.549 452.89ZM313.536 467.391V466.996L310.456 469.498L310.666 469.726L313.536 467.391ZM313.536 464.692V464.287L309.032 467.951L309.241 468.18L313.536 464.692ZM313.194 475.819L313.304 476.11L313.536 476.027V475.695L313.194 475.819ZM312.399 473.92L312.509 474.21L313.536 473.826V473.494L312.399 473.92ZM310.191 484.621L310.114 484.922L313.492 485.639V485.317L310.191 484.621ZM313.503 483.22L310.677 482.618L310.61 482.919L313.503 483.542V483.22ZM268.714 452.693L261.703 449.9L261.582 450.181L268.592 452.973L268.714 452.693ZM260.732 452.059L267.742 454.862L267.864 454.571L260.853 451.779L260.732 452.059ZM282.977 458.9L287.791 464.443L288.045 464.246L283.22 458.713L282.977 458.9ZM286.367 465.543L281.52 460.01L281.266 460.197L286.091 465.74L286.367 465.543ZM277.325 469.176L274.741 462.439L274.432 462.543L277.016 469.28L277.325 469.176ZM279.367 468.481L276.784 461.744L276.486 461.848L279.069 468.584L279.367 468.481ZM274.951 476.276L274.675 476.12L270.888 482.348L271.164 482.504L274.951 476.276ZM273.063 475.238L272.776 475.093L269.001 481.321L269.277 481.476L273.063 475.238ZM260.202 480.895L255.432 475.404L255.179 475.591L260.003 481.134L260.202 480.895ZM261.88 479.598L257.066 474.065L256.812 474.252L261.626 479.795L261.88 479.598ZM249.537 483.978L246.943 477.252L246.645 477.355L249.228 484.082L249.537 483.978ZM251.58 483.282L248.996 476.556L248.687 476.66L251.27 483.386L251.58 483.282ZM303.468 475.259L303.147 475.186L301.271 482.12L301.591 482.193L303.468 475.259ZM305.576 475.757L305.256 475.684L303.379 482.628L303.699 482.701L305.576 475.757ZM293.244 481.632L286.234 478.84L286.113 479.12L293.123 481.912L293.244 481.632ZM294.095 479.743L287.04 476.899L286.919 477.179L293.929 479.982L294.095 479.743ZM257.066 485.462L256.757 486.5H257.1L257.376 485.587L257.066 485.462ZM255.278 484.985L254.969 484.902L254.494 486.459H254.836L255.278 484.985ZM280.582 482.12L281.973 486.459H282.315L280.902 482.026L280.582 482.12ZM278.815 482.618L278.506 482.701L279.698 486.459H280.041L278.815 482.618ZM268.117 465.356L267.919 465.117L261.836 469.425L262.034 469.674L268.117 465.356ZM269.42 466.996L269.232 466.747L263.149 471.055L263.348 471.304L269.42 466.996ZM257.784 465.47L258.093 465.377L255.984 458.505L255.664 458.588L257.784 465.47ZM256.007 465.948L253.92 459.024L253.611 459.107L255.72 465.979L256.007 465.948ZM246.192 465.948L246.634 458.806H246.313L245.872 465.958L246.192 465.948ZM248.4 466.072L248.842 458.921H248.51L248.069 466.062L248.4 466.072ZM300.487 468.75L300.233 468.553L295.441 474.117L295.695 474.314L300.487 468.75ZM298.544 467.266L293.752 472.83L294.006 473.027L298.787 467.463L298.544 467.266ZM299.88 456.72H299.559L298.698 463.83H299.029L299.88 456.72ZM297.396 456.461L296.545 463.571H296.866L297.716 456.45L297.396 456.461ZM238.795 458.474L238.95 458.204L235.196 456.305V456.658L238.795 458.474ZM239.977 456.398L235.152 453.897V454.239L239.778 456.585L239.977 456.398ZM238.056 465.024L237.835 464.785L235.152 466.986V467.391L238.056 465.024ZM236.631 463.467L236.411 463.239L235.163 464.277V464.681L236.631 463.467ZM241.897 473.183L235.163 475.664V475.996L242.019 473.463L241.897 473.183ZM235.163 473.795L241.224 471.563L241.114 471.283L235.163 473.463V473.795ZM235.163 485.286V485.608L238.817 486.376H239.226L239.281 486.168L235.163 485.286ZM239.689 484.466L239.767 484.165L235.163 483.189V483.511L239.689 484.466ZM302.706 452.9L305.057 449.039H304.704L302.496 452.744L302.706 452.9ZM307.199 449.039L304.318 453.762L304.594 453.917L307.574 449.039H307.199ZM295.353 451.904L295.607 451.706L293.278 449.039H292.858L295.353 451.904ZM297.042 450.606L297.296 450.409L296.093 449.039H295.673L297.042 450.606ZM286.576 455.298L284.17 449.07H283.816L286.267 455.433L286.576 455.298ZM288.31 454.717L288.619 454.602L286.477 449.039H286.135L288.31 454.717ZM272.854 452.495L273.792 449.039H273.45L272.533 452.423L272.854 452.495ZM274.642 452.921L274.962 452.994L276.066 449.039H275.724L274.642 452.921ZM249.416 451.883L250.277 449.018H249.935L249.096 451.8L249.416 451.883ZM252.198 449.018L251.193 452.36L251.513 452.443L252.54 449.018H252.198ZM242.494 452.641L242.803 452.547L241.699 449.018H241.357L242.494 452.641ZM244.569 452.049L244.889 451.966L243.94 449.018H243.609L244.569 452.049ZM231.84 359.491L235.152 360.29V359.978L231.895 359.2L231.84 359.491ZM232.458 357.217L232.381 357.508L235.185 358.183V357.861L232.458 357.217ZM235.152 369.03V368.708L232.944 369.403L233.054 369.694L235.152 369.03ZM232.26 367.452L232.359 367.743L235.163 366.871V366.549L232.26 367.452ZM226.32 375.424H226.695L228.131 373.078L227.844 372.922L226.32 375.424ZM228.826 375.424H229.201L230.018 374.095L229.731 373.939L228.826 375.424ZM212.421 372.559L212.167 372.756L214.496 375.424H214.916L212.421 372.559ZM213.856 371.459L217.3 375.424H217.731L214.11 371.272L213.856 371.459ZM205.62 374.957L205.311 375.061L205.454 375.424H205.797L205.62 374.957ZM207.364 374.365L207.762 375.403H208.115L207.673 374.241L207.364 374.365ZM195.408 375.403L196.346 371.926L196.037 371.853L195.077 375.403H195.408ZM198.146 372.351L197.318 375.403H197.66L198.455 372.434L198.146 372.351ZM171.904 375.403L173.107 371.386L172.798 371.303L171.562 375.403H171.904ZM175.216 371.947L174.896 371.863L173.792 375.403H174.134L175.216 371.947ZM218.029 361.691L225.039 364.483L225.172 364.203L218.161 361.411L218.029 361.691ZM217.179 363.57L224.222 366.414L224.355 366.134L217.345 363.3L217.179 363.57ZM223.085 352.816L223.405 352.899L225.47 346.017L225.161 345.924L223.085 352.816ZM225.183 353.377L225.492 353.46L227.568 346.567L227.258 346.484L225.183 353.377ZM213.867 340.568L216.075 347.419L216.384 347.336L214.176 340.464L213.867 340.568ZM215.953 339.976L218.161 346.827L218.471 346.744L216.263 339.893L215.953 339.976ZM189.391 362.553L191.599 369.414L191.908 369.32L189.7 362.47L189.391 362.553ZM193.984 368.781L191.776 361.93L191.467 362.013L193.675 368.874L193.984 368.781ZM202.595 364.815L210.135 363.777V363.476L202.595 364.514V364.815ZM202.849 366.539V366.84L210.389 365.802V365.501L202.849 366.539ZM210.422 351.207L210.102 351.135L208.413 358.11L208.722 358.183L210.422 351.207ZM212.233 351.591L210.533 358.567L210.842 358.639L212.542 351.664L212.233 351.591ZM185.472 354.083L185.748 354.249L189.822 348.197L189.546 348.041L185.472 354.083ZM187.316 355.183L187.592 355.349L191.665 349.297L191.389 349.131L187.316 355.183ZM204.737 341.554L204.03 339.343H203.699L204.428 341.595L204.737 341.554ZM202.341 342.229L202.65 342.146L201.866 339.675L201.546 339.737L202.341 342.229ZM177.347 365.957L177.601 366.144L182.226 360.466L181.972 360.279L177.347 365.957ZM183.971 361.701L183.706 361.515L179.08 367.203L179.345 367.39L183.971 361.701ZM195.563 352.058L195.441 352.339L202.452 355.141L202.573 354.851L195.563 352.058ZM196.291 350.46L203.302 353.252L203.423 352.972L196.413 350.18L196.291 350.46ZM161.228 416.425L158.446 423.089L158.744 423.203L161.526 416.539L161.228 416.425ZM163.249 417.172L160.466 423.836L160.765 423.95L163.558 417.286L163.249 417.172ZM232.028 381.351L235.141 382.929V382.576L232.182 381.081L232.028 381.351ZM233.22 379.275L233.065 379.534L235.141 380.572V380.219L233.22 379.275ZM235.152 393.402L232.061 395.914L232.282 396.142L235.152 393.807V393.402ZM230.857 394.596L235.152 391.108V390.703L230.648 394.357L230.857 394.596ZM234.799 402.235L234.92 402.526L235.152 402.433V402.111L234.799 402.235ZM235.152 399.91L234.048 400.336L234.169 400.616L235.196 400.242L235.152 399.91ZM235.152 411.733L231.84 411.027L231.774 411.328L235.152 412.044V411.733ZM232.326 409.034L232.249 409.335L235.152 409.948V409.636L232.326 409.034ZM235.152 433.614L231.895 432.836L231.807 433.137L235.119 433.936L235.152 433.614ZM232.425 430.853L232.348 431.154L235.152 431.808V431.497L232.425 430.853ZM235.152 442.676V442.344L232.944 443.039L233.054 443.33L235.152 442.676ZM235.152 440.517V440.195L232.249 441.098L232.348 441.389L235.152 440.517ZM183.264 376.534L190.274 379.337L190.407 379.057L183.397 376.254L183.264 376.534ZM182.414 378.424L189.424 381.216L189.557 380.936L182.546 378.143L182.414 378.424ZM228.186 446.714L227.899 446.568L226.32 449.07H226.695L228.186 446.714ZM230.074 447.752L229.787 447.596L228.881 449.091H229.257L230.074 447.752ZM212.222 446.413L214.551 449.091H214.971L212.476 446.215L212.222 446.413ZM213.911 445.115L217.356 449.091H217.786L214.165 444.939L213.911 445.115ZM205.675 448.624L205.366 448.727L205.51 449.091H205.852L205.675 448.624ZM207.42 448.032L207.817 449.07H208.17L207.729 447.907L207.42 448.032ZM195.132 449.07H195.463L196.402 445.593L196.093 445.51L195.132 449.07ZM198.201 446.018L197.373 449.07H197.715L198.51 446.091L198.201 446.018ZM162.288 445.748L161.979 445.831L162.586 447.721L162.851 447.492L162.288 445.748ZM164.375 445.157L164.054 445.25L164.353 446.143L164.606 445.904L164.375 445.157ZM177.06 423.701L176.773 423.556L172.986 429.784L173.273 429.94L177.06 423.701ZM175.161 430.967L178.947 424.739L178.66 424.584L174.874 430.812L175.161 430.967ZM209.76 390.61L204.902 385.098L204.649 385.295L209.473 390.838L209.76 390.61ZM208.071 391.907L203.246 386.364L203.004 386.562L207.817 392.104L208.071 391.907ZM196.148 388.876L198.731 395.603L199.04 395.499L196.457 388.773L196.148 388.876ZM198.19 388.181L200.773 394.907L201.083 394.803L198.499 388.077L198.19 388.181ZM225.216 437.86L218.206 435.067L218.073 435.348L225.084 438.14L225.216 437.86ZM224.366 439.749L217.356 436.946L217.223 437.237L224.233 440.029L224.366 439.749ZM225.205 419.591L223.129 426.483L223.45 426.566L225.514 419.674L225.205 419.591ZM227.612 420.234L227.303 420.151L225.216 427.033L225.525 427.116L227.612 420.234ZM216.384 420.971L214.176 414.12L213.867 414.204L216.075 421.065L216.384 420.971ZM218.471 420.38L216.263 413.529L215.953 413.612L218.161 420.473L218.471 420.38ZM196.391 402.453L192.604 408.681L192.891 408.827L196.678 402.599L196.391 402.453ZM194.503 401.415L190.716 407.643L191.003 407.789L194.79 401.561L194.503 401.415ZM176.839 401.882L181.663 407.425L181.906 407.228L177.115 401.706L176.839 401.882ZM178.517 400.585L183.341 406.128L183.595 405.931L178.848 400.408L178.517 400.585ZM168.349 403.699L170.932 410.436L171.241 410.332L168.658 403.595L168.349 403.699ZM170.402 403.003L172.986 409.74L173.284 409.636L170.701 402.9L170.402 403.003ZM223.008 408.474L223.328 408.546L225.194 401.613L224.885 401.53L223.008 408.474ZM227.314 402.111L226.993 402.038L225.117 408.972L225.437 409.045L227.314 402.111ZM214.927 407.934L207.916 405.142L207.784 405.422L214.794 408.225L214.927 407.934ZM215.777 406.055L208.766 403.263L208.634 403.543L215.644 406.335L215.777 406.055ZM191.489 435.607L193.697 442.458L194.006 442.375L191.798 435.514L191.489 435.607ZM210.146 437.403V437.102L202.606 438.14V438.441L210.146 437.403ZM210.445 439.427V439.126L202.904 440.164V440.465L210.445 439.427ZM208.722 431.808L210.422 424.833L210.102 424.76L208.413 431.746L208.722 431.808ZM210.842 432.265L212.542 425.289L212.233 425.217L210.533 432.202L210.842 432.265ZM189.579 421.719L186.709 425.985L186.83 426.379L189.888 421.843L189.579 421.719ZM191.423 422.809L187.537 428.58L187.658 428.964L191.699 422.975L191.423 422.809ZM184.489 415.729L184.622 416.01L191.599 413.145L191.467 412.864L184.489 415.729ZM192.471 415.024L192.339 414.743L185.362 417.608L185.483 417.888L192.471 415.024ZM179.058 411.91L178.738 411.816L176.64 418.657L176.949 418.74L179.058 411.91ZM174.885 418.241L176.96 411.349L176.651 411.266L174.576 418.158L174.885 418.241ZM204.77 415.2L202.562 408.349L202.253 408.432L204.461 415.293L204.77 415.2ZM200.177 408.972L202.385 415.823L202.694 415.74L200.486 408.889L200.177 408.972ZM189.59 391.326L183.518 395.644L183.717 395.883L189.789 391.575L189.59 391.326ZM184.821 397.274L185.019 397.523L191.102 393.205L190.904 392.966L184.821 397.274ZM177.347 384.818L179.455 391.689L179.775 391.606L177.656 384.724L177.347 384.818ZM175.26 385.378L177.369 392.26L177.678 392.177L175.536 385.378H175.26ZM167.532 392.115H167.863L168.305 384.963H167.974L167.532 392.115ZM170.469 385.108H170.149L169.707 392.26H170.027L170.469 385.108ZM173.14 437.725L168.481 433.168L168.25 433.375L172.92 437.943L173.14 437.725ZM166.914 434.611L166.704 434.922L171.429 439.541L171.65 439.323L166.914 434.611ZM222.114 394.959L221.86 394.772L217.08 400.336L217.333 400.533L222.114 394.959ZM220.171 393.485L215.379 399.049L215.633 399.246L220.425 393.672L220.171 393.485ZM221.529 383.022H221.197L220.347 390.132H220.668L221.529 383.022ZM219.034 382.752L218.184 389.873H218.515L219.365 382.762L219.034 382.752ZM202.595 428.528L195.585 425.736L195.463 426.016L202.474 428.808L202.595 428.528ZM203.445 426.639L196.435 423.847L196.313 424.127L203.324 426.919L203.445 426.639ZM159.727 391.44L159.517 391.212L159.263 391.419L158.711 392.271L159.727 391.44ZM163.58 399.609L156.845 402.09V402.412L163.701 399.889L163.58 399.609ZM162.906 397.99L162.785 397.699L156.845 399.889V400.222L162.906 397.99ZM160.886 412.885L160.963 412.584L156.845 411.712V412.024L160.886 412.885ZM161.372 410.892L161.438 410.591L156.845 409.616V409.927L161.372 410.892ZM160.875 434.922L160.963 434.631L156.845 433.645V433.967L160.875 434.922ZM156.845 431.808L161.416 432.908L161.493 432.607L156.845 431.497V431.808ZM161.946 441.077L161.846 440.787L156.845 442.333V442.665L161.946 441.077ZM161.261 439.136L161.162 438.846L156.845 440.185V440.506L161.261 439.136ZM224.112 379.14L224.399 379.285L226.751 375.424H226.32L224.112 379.14ZM226 380.178L226.287 380.323L229.257 375.445H228.881L226 380.178ZM217.3 378.102L214.971 375.424H214.551L217.046 378.289L217.3 378.102ZM218.725 377.002L218.978 376.804L217.786 375.424H217.356L218.725 377.002ZM208.259 381.693L205.852 375.465H205.51L207.949 381.839L208.259 381.693ZM210.003 381.102L210.312 380.998L208.17 375.424H207.817L210.003 381.102ZM194.216 378.808L194.536 378.88L195.463 375.424H195.132L194.216 378.808ZM196.324 379.316L196.633 379.389L197.737 375.424H197.395L196.324 379.316ZM170.778 378.216L171.098 378.299L171.959 375.424H171.617L170.778 378.216ZM174.222 375.424H173.88L172.875 378.766L173.185 378.86L174.222 375.424ZM232.061 454.987L235.174 456.564V456.211L232.215 454.717L232.061 454.987ZM233.253 452.911L233.099 453.18L235.174 454.218V453.876L233.253 452.911ZM235.152 467.391V466.986L232.061 469.498L232.282 469.726L235.152 467.391ZM235.152 464.692V464.287L230.648 467.951L230.857 468.18L235.152 464.692ZM234.799 475.819L234.92 476.11L235.152 476.027V475.695L234.799 475.819ZM234.004 473.92L234.125 474.21L235.152 473.826V473.494L234.004 473.92ZM231.796 484.621L231.73 484.922L235.108 485.639V485.317L231.796 484.621ZM235.108 483.22L232.282 482.618L232.204 482.919L235.108 483.542V483.22ZM204.649 458.9L209.473 464.443L209.727 464.246L204.902 458.713L204.649 458.9ZM208.038 465.543L203.213 460.01L202.97 460.197L207.784 465.74L208.038 465.543ZM199.007 469.176L196.799 463.384L196.645 463.893L198.709 469.28L199.007 469.176ZM201.049 468.481L198.466 461.744L198.157 461.848L200.74 468.584L201.049 468.481ZM196.633 476.276L196.346 476.12L192.56 482.348L192.847 482.504L196.633 476.276ZM194.425 475.113L192.096 479.037L191.732 480.251L194.79 475.228L194.425 475.113ZM225.128 475.279L224.819 475.207L222.942 482.141L223.262 482.213L225.128 475.279ZM227.247 475.778L226.927 475.705L225.05 482.649L225.371 482.722L227.247 475.778ZM214.927 481.632L207.916 478.84L207.784 479.12L214.794 481.912L214.927 481.632ZM215.777 479.743L208.766 476.951L208.634 477.231L215.644 480.033L215.777 479.743ZM202.264 482.12L203.655 486.459H203.997L202.573 482.026L202.264 482.12ZM200.497 482.618L200.177 482.701L201.381 486.459H201.723L200.497 482.618ZM222.125 468.709L221.871 468.512L217.091 474.075L217.345 474.273L222.125 468.709ZM220.182 467.225L215.39 472.788L215.644 472.985L220.436 467.422L220.182 467.225ZM221.529 456.678H221.197L220.347 463.789H220.668L221.529 456.678ZM219.034 456.419L218.184 463.529H218.515L219.365 456.409L219.034 456.419ZM224.388 452.983L226.74 449.122H226.32L224.112 452.827L224.388 452.983ZM228.87 449.122L225.989 453.845L226.276 454L229.246 449.122H228.87ZM217.035 451.987L217.289 451.79L214.96 449.122H214.54L217.035 451.987ZM218.713 450.689L218.967 450.492L217.775 449.122H217.345L218.713 450.689ZM208.248 455.381L205.841 449.153H205.499L207.938 455.516L208.248 455.381ZM209.992 454.8L210.301 454.686L208.159 449.122H207.806L209.992 454.8ZM194.646 450.845L194.834 451.416L195.452 449.122H195.121L194.646 450.845ZM196.313 453.004L196.622 453.077L197.726 449.122H197.384L196.313 453.004ZM156.492 402.235L156.613 402.526L156.845 402.433V402.111L156.492 402.235ZM156.845 399.91L155.741 400.336L155.863 400.616L156.889 400.242L156.845 399.91ZM153.456 411.328L156.845 412.044V411.733L153.533 411.027L153.456 411.328ZM153.942 409.335L156.845 409.948V409.636L154.008 408.972L153.942 409.335ZM156.845 433.666L153.533 432.888L153.456 433.189L156.768 433.988L156.845 433.666ZM154.118 430.905L154.041 431.206L156.845 431.87V431.559L154.118 430.905ZM156.845 442.728V442.396L154.637 443.091L154.737 443.382L156.845 442.728ZM156.845 440.569V440.247L153.931 441.15L154.03 441.441L156.845 440.569ZM149.846 446.797L149.57 446.651L148.046 449.153H148.422L149.846 446.797ZM151.734 447.835L151.458 447.679L150.553 449.174H150.928L151.734 447.835ZM133.893 446.496L136.212 449.174H136.642L134.147 446.298L133.893 446.496ZM135.571 445.198L139.027 449.174H139.446L135.825 445.022L135.571 445.198ZM129.389 448.011L129.08 448.115L129.488 449.153H129.841L129.389 448.011ZM124.642 386.665L125.746 387.994L124.642 386.613V386.665ZM117.786 388.98L120.38 395.706L120.678 395.603L118.128 388.773L117.786 388.98ZM119.839 388.285L122.423 395.011L122.732 394.907L120.148 388.181L119.839 388.285ZM146.832 437.86L139.822 435.067L139.7 435.348L146.711 438.14L146.832 437.86ZM145.982 439.749L138.983 436.946L138.85 437.237L145.861 440.029L145.982 439.749ZM146.832 419.591L144.757 426.483L145.066 426.566L147.141 419.674L146.832 419.591ZM149.239 420.234L148.919 420.151L146.854 427.033L147.163 427.116L149.239 420.234ZM138.011 420.971L135.803 414.12L135.494 414.204L137.702 421.065L138.011 420.971ZM140.087 420.38L137.879 413.529L137.569 413.612L139.777 420.473L140.087 420.38ZM118.316 402.609L118.04 402.453L114.253 408.681L114.54 408.827L118.316 402.609ZM116.428 401.571L116.152 401.415L112.365 407.643L112.652 407.789L116.428 401.571ZM136.598 407.934L129.588 405.142L129.466 405.422L136.477 408.225L136.598 407.934ZM137.448 406.055L130.438 403.263L130.316 403.543L137.327 406.335L137.448 406.055ZM124.266 438.399L131.807 437.361V437.06L124.266 438.098V438.399ZM124.575 440.423L132.116 439.385V439.084L124.575 440.122V440.423ZM130.095 431.704L130.416 431.766L132.116 424.791L131.796 424.718L130.095 431.704ZM133.915 425.175L132.215 432.161L132.535 432.223L134.235 425.248L133.915 425.175ZM113.16 412.823L110.257 414.017L110.367 414.307L113.293 413.103L113.16 412.823ZM114.021 414.702L110.963 415.958L111.073 416.248L114.154 414.982L114.021 414.702ZM123.957 408.474L126.165 415.335L126.485 415.242L124.277 408.391L123.957 408.474ZM121.871 409.065L124.079 415.916L124.399 415.833L122.191 408.982L121.871 409.065ZM105.2 395.789L105.399 396.028L111.482 391.72L111.283 391.471L105.2 395.789ZM112.796 393.35L112.597 393.111L106.514 397.419L106.713 397.668L112.796 393.35ZM124.288 428.549L117.278 425.756L117.145 426.037L124.156 428.829L124.288 428.549ZM117.996 424.148L125.006 426.94L125.138 426.66L118.128 423.815L117.996 424.148ZM153.898 454.769L153.743 455.038L154.019 454.831L153.898 454.769ZM154.924 452.973L154.77 453.243L155.576 453.648L155.841 453.43L154.924 452.973ZM142.416 460.467H142.747L143.2 456.627H142.88L142.416 460.467ZM140.208 460.114L140.528 460.208L140.981 456.398H140.661L140.208 460.114ZM148.367 449.07H147.991L145.783 452.776L146.059 452.931L148.367 449.07ZM150.873 449.07H150.497L147.616 453.793L147.903 453.949L150.873 449.07ZM138.662 451.935L138.905 451.738L136.587 449.07H136.156L138.662 451.935ZM140.341 450.637L140.594 450.44L139.391 449.07H138.972L140.341 450.637ZM129.433 449.07L131.012 453.222L131.619 453.886L129.786 449.111L129.433 449.07Z" fill="white"/>
<path d="M220.977 339.426C220.977 339.426 203.048 337.08 194.768 342.114C186.488 347.149 145.574 412.896 145.574 412.896L122.975 384.299L103.379 392.572C103.379 392.572 112.564 425.995 123.251 442.624C133.937 459.253 140.031 460.934 143.697 460.384C154.604 458.754 186.201 424.386 186.201 424.386L197.682 460.301L189.888 486.407H335.064L317.455 458.796C317.455 458.796 340.43 359.148 334.578 348.592C328.727 338.035 294.636 339.426 283.916 339.426H253.225C248.573 340.293 243.846 340.752 239.104 340.796C233.041 340.63 226.991 340.173 220.977 339.426V339.426Z" stroke="#263238" stroke-width="0.985332"/>
<path d="M186.212 424.386C182.009 416.491 180.377 407.605 181.52 398.841C183.65 384.859 192.858 369.549 192.858 369.549C192.858 369.549 174.487 394.461 174.487 402.765C174.487 411.069 179.952 423.213 179.952 423.213L175.183 436.012L186.212 424.386Z" fill="#263238" stroke="#263238" stroke-width="0.985332" stroke-linecap="round" stroke-linejoin="round"/>
<path d="M236.179 325.652L236.664 340.308L223.516 340.765C223.516 340.765 220.8 394.544 232.502 404.166C244.205 413.788 279.533 339.426 279.533 339.426L267.389 337.132L263.492 307.362L236.179 325.652Z" fill="#CFCFCF" stroke="#263238" stroke-width="0.985332" stroke-linecap="round" stroke-linejoin="round"/>
<path d="M264.894 313.175L236.775 338.087V329.274L264.894 313.175Z" fill="#263238" stroke="#263238" stroke-width="0.985332" stroke-linecap="round" stroke-linejoin="round"/>
<path d="M232.502 404.166C232.502 404.166 233.916 395.509 240.992 384.195L232.502 404.166Z" fill="white"/>
<path d="M232.502 404.166C232.502 404.166 233.916 395.509 240.992 384.195" stroke="#263238" stroke-width="0.985332" stroke-linecap="round" stroke-linejoin="round"/>
<path d="M230.515 243.006L198.499 274.302C201.015 280.963 202.234 287.995 202.098 295.062C201.723 306.148 212.443 322.455 221.209 330.032C229.974 337.61 247.859 325.963 254.538 321.853C258.999 319.01 263.158 315.771 266.958 312.178C269.394 312.079 271.764 311.4 273.845 310.206C275.927 309.012 277.652 307.34 278.859 305.348C278.859 305.348 232.337 258.607 230.515 243.006Z" fill="#CFCFCF" stroke="#263238" stroke-width="0.985332" stroke-linecap="round" stroke-linejoin="round"/>
<path d="M221.838 275.143C222.945 277.263 223.661 279.544 223.957 281.89C224.057 284.786 218.658 298.352 219.431 299.255C220.204 300.158 222.622 303.148 224.509 302.764" stroke="#263238" stroke-width="0.985332" stroke-linecap="round" stroke-linejoin="round"/>
<path d="M235.152 289.976C239.663 288.387 244.623 288.331 249.173 289.82" stroke="#263238" stroke-width="0.492666" stroke-linecap="round" stroke-linejoin="round"/>
<path d="M210.235 291.055C212.646 290.419 215.138 290.09 217.643 290.079" stroke="#263238" stroke-width="0.492666" stroke-linecap="round" stroke-linejoin="round"/>
<path d="M217.797 267.472C216.56 267.385 215.319 267.569 214.17 268.009C213.021 268.448 211.995 269.131 211.173 270.005C208.402 273.004 207.055 275.62 206.36 273.503C205.664 271.385 208.755 267.493 209.848 266.704C210.941 265.915 216.064 262.822 217.797 267.472Z" fill="#263238"/>
<path d="M231.498 265.728C234.745 265.717 237.95 266.428 240.849 267.804C245.077 269.984 243.057 265.562 240.087 264.296C237.117 263.029 231.973 263.154 231.498 265.728Z" fill="#263238"/>
<path d="M280.515 317.784C280.714 320.898 279.003 323.493 276.718 323.617C274.432 323.742 272.412 321.334 272.213 318.24C272.015 315.147 273.395 307.165 275.68 307.04C277.965 306.916 280.328 314.68 280.515 317.784Z" fill="#92E3A9" stroke="#263238" stroke-width="0.985332" stroke-linecap="round" stroke-linejoin="round"/>
<path d="M216.483 285.45C216.638 287.526 215.799 289.208 214.618 289.28C213.436 289.353 212.41 287.765 212.222 285.73C212.034 283.696 212.906 281.973 214.088 281.9C215.269 281.827 216.384 283.457 216.483 285.45Z" fill="#263238"/>
<path d="M240.308 284.651C240.462 286.727 239.623 288.398 238.453 288.481C237.283 288.564 236.245 286.965 236.046 284.921C235.848 282.876 236.742 281.173 237.912 281.101C239.082 281.028 240.164 282.616 240.308 284.651Z" fill="#263238"/>
<path d="M224.355 308.67C224.355 308.67 229.974 310.362 237.603 304.227" stroke="#263238" stroke-width="0.985332" stroke-linecap="round" stroke-linejoin="round"/>
<path d="M122.975 384.32L112.696 371.376C112.222 367.929 111.305 360.809 111.151 356.003C110.941 349.463 111.283 345.467 107.331 339.665C103.379 333.862 92.3496 324.697 91.3118 322.569C90.2741 320.441 87.2712 326.441 89.159 330.333C91.0469 334.226 92.7691 335.419 92.7691 335.419C92.7691 335.419 72.4666 325.932 71.7931 327.479C71.1197 329.025 81.2434 356.377 85.8802 363.591C87.8122 366.601 93.1666 370.628 95.7499 374.116C97.0134 375.837 98.0967 377.669 98.9846 379.586C101.391 389.208 104.196 399.796 105.609 400.18C108.821 401.062 122.456 401.27 122.975 384.32Z" fill="#CFCFCF" stroke="#263238" stroke-width="0.985332" stroke-miterlimit="10"/>
<path d="M94.1161 354.581C93.9305 354.628 93.7369 354.64 93.5463 354.616C93.3558 354.592 93.1721 354.534 93.0059 354.443C92.8397 354.352 92.6942 354.231 92.5777 354.088C92.4613 353.944 92.3763 353.78 92.3276 353.605L76.1761 297.46C76.0897 297.12 76.1445 296.762 76.3291 296.46C76.5138 296.157 76.8144 295.932 77.1697 295.83C77.5429 295.738 77.9398 295.787 78.2745 295.968C78.6092 296.148 78.8548 296.446 78.9582 296.795L95.1538 352.92C95.2451 353.269 95.1878 353.638 94.9939 353.949C94.8001 354.259 94.4851 354.486 94.1161 354.581Z" fill="#263238" stroke="#263238" stroke-width="0.985332" stroke-miterlimit="10"/>
<path d="M82.4688 318.863C82.4688 318.863 66.8804 326.607 67.8408 328.122C68.8013 329.638 71.6496 335.046 72.9524 334.921C74.2551 334.797 83.7164 327.531 84.4008 326.617C85.0853 325.704 82.4688 318.863 82.4688 318.863Z" fill="#CFCFCF" stroke="#263238" stroke-width="0.985332" stroke-miterlimit="10"/>
<path d="M85.2509 328.371C85.2509 328.371 72.301 337.35 72.7205 338.658C73.1401 339.966 79.4881 355.442 80.5921 356.698C81.6961 357.954 91.8308 353.584 91.8308 353.584L85.2509 328.371Z" fill="#CFCFCF" stroke="#263238" stroke-width="0.985332" stroke-miterlimit="10"/>
<path d="M87.2161 336.717C87.2161 336.717 74.8181 345.872 75.6351 346.163" stroke="#263238" stroke-width="0.985332" stroke-miterlimit="10"/>
<path d="M89.5565 346.64L79.1348 352.38" stroke="#263238" stroke-width="0.985332" stroke-miterlimit="10"/>
<path d="M92.7361 335.419L98.4548 340.672C98.4548 340.672 90.8593 355.92 98.1346 364.338" stroke="#263238" stroke-width="0.985332" stroke-miterlimit="10"/>
<path d="M318.383 342.675C318.383 342.675 332.26 340.973 338.255 351.757C344.249 362.542 381.708 457.862 382.315 466.975C382.922 476.089 357.564 478.321 349.118 474.356C340.672 470.39 317.102 423.286 314.717 417.037" fill="#AA5404"/>
<path d="M322.794 408.679L320.738 415.555L321.055 415.639L323.112 408.764L322.794 408.679Z" fill="white"/>
<path d="M327.59 389.292L325.481 382.41L325.161 382.503L327.281 389.375L327.59 389.292Z" fill="white"/>
<path d="M326.558 409.362L324.479 416.252L324.797 416.337L326.876 409.447L326.558 409.362Z" fill="white"/>
<path d="M329.754 404.851L324.929 399.308L324.675 399.505L329.5 405.038L329.754 404.851Z" fill="white"/>
<path d="M340.166 412.278L333.184 415.142L333.317 415.427L340.299 412.563L340.166 412.278Z" fill="white"/>
<path d="M339.513 420.535L339.237 420.369L335.163 426.421L335.439 426.587L339.513 420.535Z" fill="white"/>
<path d="M323.075 383.064L325.183 389.945L325.503 389.852L323.384 382.98L323.075 383.064Z" fill="white"/>
<path d="M333.32 425.32L333.596 425.487L337.669 419.445L337.393 419.279L333.32 425.32Z" fill="white"/>
<path d="M331.432 403.554L326.618 398.011L326.365 398.208L331.178 403.74L331.432 403.554Z" fill="white"/>
<path d="M338.733 390.634L332.644 394.938L332.843 395.187L338.932 390.883L338.733 390.634Z" fill="white"/>
<path d="M337.206 360.155L339.403 367.016L339.712 366.923L337.526 360.072L337.206 360.155Z" fill="white"/>
<path d="M337.614 389.271L337.416 389.022L331.333 393.329L331.531 393.578L337.614 389.271Z" fill="white"/>
<path d="M333.596 351.882L335.881 348.488C335.804 348.415 335.737 348.332 335.66 348.249L333.32 351.716L333.596 351.882Z" fill="white"/>
<path d="M326.917 364.805L327.181 364.992L331.807 359.304L331.553 359.117L326.917 364.805Z" fill="white"/>
<path d="M331.068 374.137L338.078 376.929L338.211 376.649L331.2 373.856L331.068 374.137Z" fill="white"/>
<path d="M339.292 359.563L341.489 366.424L341.798 366.331L339.613 359.48L339.292 359.563Z" fill="white"/>
<path d="M338.829 405.401L342.615 399.184L342.328 399.038L338.553 405.246L338.829 405.401Z" fill="white"/>
<path d="M330.359 375.765L330.234 376.042L337.247 378.84L337.372 378.563L330.359 375.765Z" fill="white"/>
<path d="M339.277 410.443L332.294 413.306L332.427 413.592L339.409 410.729L339.277 410.443Z" fill="white"/>
<path d="M356.592 474.501L356.471 474.781L359.992 476.193H360.853L356.592 474.501Z" fill="white"/>
<path d="M358.116 452.236L355.974 446.662L355.532 445.51L355.223 445.613L355.632 446.662L357.807 452.34L358.116 452.236Z" fill="white"/>
<path d="M350.785 457.8L355.61 463.342L355.852 463.145L351.039 457.602L350.785 457.8Z" fill="white"/>
<path d="M356.062 452.931L353.666 446.662L353.479 446.205L353.181 446.298L353.313 446.662L355.764 453.035L356.062 452.931Z" fill="white"/>
<path d="M358.204 436.728L350.664 437.725L350.708 438.026L358.248 437.029L358.204 436.728Z" fill="white"/>
<path d="M380.107 467.328L382.15 465.668L382.083 465.325L379.875 467.1L380.107 467.328Z" fill="white"/>
<path d="M325.194 363.559L325.448 363.746L330.085 358.058L329.82 357.871L325.194 363.559Z" fill="white"/>
<path d="M316.504 401.203L316.192 401.309L318.779 408.046L319.09 407.94L316.504 401.203Z" fill="white"/>
<path d="M378.672 465.782L381.587 463.415C381.551 463.306 381.521 463.195 381.498 463.083L378.462 465.553L378.672 465.782Z" fill="white"/>
<path d="M357.542 461.848L352.717 456.315L352.463 456.502L357.288 462.045L357.542 461.848Z" fill="white"/>
<path d="M317.996 382.798L317.553 389.948L317.884 389.966L318.326 382.816L317.996 382.798Z" fill="white"/>
<path d="M352.584 412.792L350.399 405.941L350.078 406.024L352.275 412.885L352.584 412.792Z" fill="white"/>
<path d="M346.285 385.659L345.983 385.761L348.569 392.498L348.87 392.396L346.285 385.659Z" fill="white"/>
<path d="M345.177 373.026L344.128 376.919L344.448 376.991L345.519 373.026L346.325 370.047L346.005 369.974L345.177 373.026Z" fill="white"/>
<path d="M342.936 373.026L342.019 376.41L342.339 376.483L343.267 373.026L344.216 369.549L343.896 369.476L342.936 373.026Z" fill="white"/>
<path d="M347.992 406.616L350.189 413.467L350.498 413.384L348.312 406.522L347.992 406.616Z" fill="white"/>
<path d="M344.221 386.383L343.919 386.486L346.506 393.222L346.807 393.12L344.221 386.383Z" fill="white"/>
<path d="M318.564 400.489L318.253 400.595L320.838 407.332L321.15 407.226L318.564 400.489Z" fill="white"/>
<path d="M335.439 352.92L337.294 350.169L337.095 349.879L335.163 352.764L335.439 352.92Z" fill="white"/>
<path d="M344.128 421.698L351.138 424.49L351.26 424.21L344.249 421.418L344.128 421.698Z" fill="white"/>
<path d="M324.863 347.668L324.576 347.512L320.789 353.719L321.076 353.875L324.863 347.668Z" fill="white"/>
<path d="M376.464 447.689L376.32 447.305L373.836 451.395L374.112 451.54L376.464 447.689Z" fill="white"/>
<path d="M369.343 454.229L369.023 454.198L368.162 461.308L368.493 461.339L369.343 454.229Z" fill="white"/>
<path d="M365.173 434.583L365.048 434.86L372.061 437.657L372.186 437.38L365.173 434.583Z" fill="white"/>
<path d="M374.554 446.662L375.515 445.094L375.382 444.7L374.179 446.662L371.916 450.378L372.203 450.523L374.554 446.662Z" fill="white"/>
<path d="M369.951 466.259L369.697 466.062L364.905 471.626L365.159 471.823L369.951 466.259Z" fill="white"/>
<path d="M371.838 434.995L366.009 432.67L365.888 432.95L371.982 435.379L371.838 434.995Z" fill="white"/>
<path d="M368.25 464.972L367.996 464.775L363.216 470.339L363.47 470.536L368.25 464.972Z" fill="white"/>
<path d="M360.368 422.85L360.048 422.777L358.347 429.753L358.668 429.825L360.368 422.85Z" fill="white"/>
<path d="M364.85 449.537L365.104 449.34L362.774 446.662L360.279 443.797L360.025 443.994L362.355 446.662L364.85 449.537Z" fill="white"/>
<path d="M322.677 354.737L322.964 354.892L326.751 348.675L326.464 348.529L322.677 354.737Z" fill="white"/>
<path d="M344.219 460.014L343.917 460.116L346.504 466.853L346.805 466.751L344.219 460.014Z" fill="white"/>
<path d="M373.042 472.851L372.722 472.767L372.136 474.927L372.501 474.833L373.042 472.851Z" fill="white"/>
<path d="M346.292 459.294L345.991 459.396L348.576 466.133L348.877 466.031L346.292 459.294Z" fill="white"/>
<path d="M356.46 401.145L359.374 402.308C359.374 402.173 359.264 402.038 359.22 401.914L356.581 400.876L356.46 401.145Z" fill="white"/>
<path d="M375.15 473.328L374.83 473.255L374.565 474.221L374.941 474.096L375.15 473.328Z" fill="white"/>
<path d="M337.36 452.174L331.575 449.869L331.818 450.295L337.228 452.454L337.36 452.174Z" fill="white"/>
<path d="M317.588 358.899L321.352 362.584L321.595 362.376L317.61 358.484L317.588 358.899Z" fill="white"/>
<path d="M350.785 384.164L353.368 387.122L353.004 386.229L351.072 383.967L350.785 384.164Z" fill="white"/>
<path d="M319.785 364.006L320.016 363.788L317.477 361.297L317.455 361.722L319.785 364.006Z" fill="white"/>
<path d="M361.681 411.806L363.878 418.667L364.187 418.573L362.002 411.723L361.681 411.806Z" fill="white"/>
<path d="M338.211 450.295L331.2 447.492L331.068 447.772L338.078 450.575L338.211 450.295Z" fill="white"/>
<path d="M330.085 431.704L329.82 431.517L325.194 437.195L325.448 437.382L330.085 431.704Z" fill="white"/>
<path d="M341.798 439.977L339.613 433.116L339.292 433.209L341.489 440.06L341.798 439.977Z" fill="white"/>
<path d="M339.712 440.569L337.526 433.708L337.206 433.801L339.403 440.652L339.712 440.569Z" fill="white"/>
<path d="M331.807 432.939L331.553 432.763L326.917 438.441L327.181 438.628L331.807 432.939Z" fill="white"/>
<path d="M320.679 376.368L320.999 376.451L322.026 373.026L323.064 369.57L322.754 369.476L321.684 373.026L320.679 376.368Z" fill="white"/>
<path d="M319.42 373.026L318.581 375.818L318.901 375.901L319.763 373.026L320.966 369.009L320.657 368.926L319.42 373.026Z" fill="white"/>
<path d="M324.863 421.303L324.576 421.148L320.789 427.365L321.076 427.511L324.863 421.303Z" fill="white"/>
<path d="M326.751 422.321L326.464 422.165L322.677 428.383L322.964 428.528L326.751 422.321Z" fill="white"/>
<path d="M344.227 400.056L340.441 406.263L340.717 406.419L344.503 400.201L344.227 400.056Z" fill="white"/>
<path d="M357.928 422.321L356.228 429.296L356.548 429.369L358.248 422.393L357.928 422.321Z" fill="white"/>
<path d="M360.246 404.54L355.731 402.744L355.609 403.024L360.401 404.934C360.346 404.82 360.302 404.675 360.246 404.54Z" fill="white"/>
<path d="M357.95 435.005L357.906 434.704L350.365 435.7L350.41 436.002L357.95 435.005Z" fill="white"/>
<path d="M361.968 442.499L361.715 442.697L365.17 446.662L366.539 448.24L366.793 448.042L365.59 446.662L361.968 442.499Z" fill="white"/>
<path d="M345.519 446.662L346.325 443.693L346.005 443.62L345.177 446.662L344.128 450.554L344.448 450.627L345.519 446.662Z" fill="white"/>
<path d="M343.405 423.331L343.28 423.609L350.293 426.406L350.418 426.129L343.405 423.331Z" fill="white"/>
<path d="M343.267 446.662L344.216 443.184L343.896 443.112L342.936 446.662L342.019 450.046L342.339 450.129L343.267 446.662Z" fill="white"/>
<path d="M366.329 461.111L367.179 454L366.859 453.969L365.998 461.08L366.329 461.111Z" fill="white"/>
<path d="M318.383 342.675C318.383 342.675 332.26 340.973 338.255 351.757C344.249 362.542 381.708 457.862 382.315 466.975C382.922 476.089 357.564 478.321 349.118 474.356C340.672 470.39 317.102 423.286 314.717 417.037" stroke="#263238" stroke-width="0.985332"/>
<path d="M234.49 472.622C234.49 472.622 206.128 469.217 201.292 469.778C196.457 470.339 174.741 483.967 174.741 483.967H236.256L234.49 472.622Z" fill="#CFCFCF" stroke="#263238" stroke-width="0.985332" stroke-linecap="round" stroke-linejoin="round"/>
<path d="M351.569 454.457L234.545 472.622L236.256 483.968H380.549C381.671 478.352 382.277 472.657 382.359 466.944C382.359 458.433 376.928 448.79 376.928 448.79" fill="#92E3A9"/>
<path d="M361.262 473.193L363.459 480.044L363.768 479.961L361.582 473.1L361.262 473.193Z" fill="white"/>
<path d="M369.277 453.803L364.486 459.367L364.74 459.564L369.531 454L369.277 453.803Z" fill="white"/>
<path d="M362.797 458.08L363.051 458.277L367.831 452.713L367.577 452.516L362.797 458.08Z" fill="white"/>
<path d="M347.572 467.993L349.769 474.854L350.078 474.76L347.893 467.91L347.572 467.993Z" fill="white"/>
<path d="M365.855 479.369L363.658 472.508L363.349 472.601L365.546 479.452L365.855 479.369Z" fill="white"/>
<path d="M352.165 474.179L349.979 467.318L349.659 467.411L351.856 474.262L352.165 474.179Z" fill="white"/>
<path d="M372.309 460.513L370.434 467.455L370.755 467.532L372.63 460.59L372.309 460.513Z" fill="white"/>
<path d="M370.966 483.968H371.308L372.909 478.653L372.589 478.57L370.966 483.968Z" fill="white"/>
<path d="M343.83 482.795L343.708 483.075L345.938 483.968H346.777L343.83 482.795Z" fill="white"/>
<path d="M374.389 460.967L372.513 467.909L372.834 467.985L374.71 461.044L374.389 460.967Z" fill="white"/>
<path d="M318.135 461.865L317.823 461.971L320.409 468.708L320.72 468.602L318.135 461.865Z" fill="white"/>
<path d="M355.19 464.412L362.189 467.204L362.322 466.924L355.311 464.121L355.19 464.412Z" fill="white"/>
<path d="M357.508 483.708L357.442 483.967H357.773L357.829 483.77L357.508 483.708Z" fill="white"/>
<path d="M356.163 462.265L356.038 462.542L363.05 465.34L363.175 465.063L356.163 462.265Z" fill="white"/>
<path d="M324.256 460.882L329.08 466.425L329.334 466.228L324.51 460.685L324.256 460.882Z" fill="white"/>
<path d="M331.012 464.931L326.188 459.398L325.945 459.585L330.758 465.128L331.012 464.931Z" fill="white"/>
<path d="M378.263 453.523L378.937 452.973L378.804 452.672L378.054 453.295L378.263 453.523Z" fill="white"/>
<path d="M324.043 470.187L321.964 477.077L322.283 477.162L324.362 470.272L324.043 470.187Z" fill="white"/>
<path d="M379.666 468.263L382.326 468.833C382.326 468.73 382.326 468.626 382.326 468.522L379.721 467.962L379.666 468.263Z" fill="white"/>
<path d="M338.818 481.757L337.327 483.968H337.714L339.094 481.912L338.818 481.757Z" fill="white"/>
<path d="M382.249 470.598L379.257 469.965L379.18 470.256L382.227 470.909C382.238 470.806 382.249 470.702 382.249 470.598Z" fill="white"/>
<path d="M379.688 455.07L379.765 455.007L379.644 454.696L379.478 454.841L379.688 455.07Z" fill="white"/>
<path d="M338.853 471.813L331.871 474.676L332.003 474.961L338.986 472.098L338.853 471.813Z" fill="white"/>
<path d="M337.25 480.822L336.974 480.656L334.744 483.967H335.13L337.25 480.822Z" fill="white"/>
<path d="M326.161 470.799L324.082 477.689L324.4 477.774L326.48 470.884L326.161 470.799Z" fill="white"/>
<path d="M339.747 473.663L332.765 476.527L332.897 476.812L339.879 473.948L339.747 473.663Z" fill="white"/>
<path d="M344.084 461.588L343.808 461.433L340.021 467.65L340.297 467.806L344.084 461.588Z" fill="white"/>
<path d="M338.133 466.633L338.409 466.778L342.196 460.571L341.909 460.415L338.133 466.633Z" fill="white"/>
<path d="M260.539 471.819L253.557 474.681L253.689 474.967L260.672 472.104L260.539 471.819Z" fill="white"/>
<path d="M246.126 482.68L245.839 482.535L244.967 483.967H245.342L246.126 482.68Z" fill="white"/>
<path d="M243.962 477.169L245.861 470.858L245.508 470.909L243.653 477.086L243.962 477.169Z" fill="white"/>
<path d="M248.014 483.698L247.727 483.552L247.473 483.968H247.848L248.014 483.698Z" fill="white"/>
<path d="M284.722 465.315L284.854 465.034L284.435 464.879L283.838 464.962L284.722 465.315Z" fill="white"/>
<path d="M292.648 483.968H292.991L294.58 478.653L294.271 478.57L292.648 483.968Z" fill="white"/>
<path d="M295.508 463.156L294.216 467.951L294.525 468.034L295.861 463.104L295.508 463.156Z" fill="white"/>
<path d="M258.932 480.822L258.656 480.656L256.426 483.967H256.813L258.932 480.822Z" fill="white"/>
<path d="M260.776 481.912L260.5 481.757L258.998 483.968H259.385L260.776 481.912Z" fill="white"/>
<path d="M326.044 483.552L325.79 483.968H326.166L326.331 483.698L326.044 483.552Z" fill="white"/>
<path d="M374.687 479.13L373.229 483.968H373.571L374.996 479.213L374.687 479.13Z" fill="white"/>
<path d="M316.085 462.576L315.773 462.681L318.36 469.418L318.672 469.312L316.085 462.576Z" fill="white"/>
<path d="M296.358 479.13L294.912 483.968H295.243L296.678 479.213L296.358 479.13Z" fill="white"/>
<path d="M265.512 482.795L265.38 483.075L267.621 483.968H268.449L265.512 482.795Z" fill="white"/>
<path d="M324.444 482.68L324.156 482.535L323.284 483.967H323.66L324.444 482.68Z" fill="white"/>
<path d="M246.154 470.32L244.098 477.196L244.416 477.28L246.472 470.404L246.154 470.32Z" fill="white"/>
<path d="M308.955 475.529L308.645 475.414L305.863 482.078L306.161 482.193L308.955 475.529Z" fill="white"/>
<path d="M261.409 473.69L254.426 476.553L254.559 476.839L261.541 473.976L261.409 473.69Z" fill="white"/>
<path d="M310.975 476.266L310.666 476.162L307.884 482.826L308.193 482.93L310.975 476.266Z" fill="white"/>
<path d="M300.862 470.266L304.24 470.982L308.281 471.833L308.358 471.532L304.24 470.66L300.928 469.965L300.862 470.266Z" fill="white"/>
<path d="M308.767 469.84L308.844 469.539L304.24 468.564L301.414 467.962L301.337 468.263L304.24 468.875L308.767 469.84Z" fill="white"/>
<path d="M292.428 467.526L293.521 463.467L293.167 463.519L292.107 467.453L292.428 467.526Z" fill="white"/>
<path d="M284.004 466.924L280.427 465.491L279.831 465.585L283.872 467.204L284.004 466.924Z" fill="white"/>
<path d="M273.527 474.262L273.847 474.179L271.65 467.318L271.341 467.411L273.527 474.262Z" fill="white"/>
<path d="M271.761 474.76L269.564 467.91L269.255 467.993L271.452 474.854L271.761 474.76Z" fill="white"/>
<path d="M282.944 473.193L285.141 480.044L285.45 479.961L283.253 473.1L282.944 473.193Z" fill="white"/>
<path d="M279.18 483.708L279.113 483.967H279.456L279.5 483.77L279.18 483.708Z" fill="white"/>
<path d="M287.537 479.369L285.34 472.508L285.031 472.601L287.217 479.452L287.537 479.369Z" fill="white"/>
<path d="M351.569 454.457L234.545 472.622L236.256 483.968H380.549C381.671 478.352 382.277 472.657 382.359 466.944C382.359 458.433 376.928 448.79 376.928 448.79" stroke="#263238" stroke-width="0.985332"/>
<path d="M377.303 482.13H231.84L227.071 406.896C226.941 406.163 226.982 405.413 227.192 404.696C227.402 403.98 227.775 403.315 228.286 402.749C228.796 402.182 229.432 401.726 230.149 401.413C230.866 401.101 231.646 400.938 232.436 400.938H376.685C377.476 400.937 378.257 401.098 378.975 401.41C379.692 401.722 380.329 402.177 380.84 402.745C381.351 403.312 381.724 403.978 381.933 404.695C382.142 405.412 382.182 406.163 382.05 406.896L377.303 482.13Z" fill="#263238" stroke="#263238" stroke-width="0.985332" stroke-linecap="round" stroke-linejoin="round"/>
<path d="M238.983 402.744H375.636C376.408 402.736 377.172 402.887 377.875 403.186C378.578 403.485 379.203 403.924 379.707 404.474C380.21 405.024 380.58 405.67 380.79 406.368C381.001 407.066 381.046 407.799 380.924 408.515" stroke="white" stroke-width="0.985332" stroke-linecap="round" stroke-linejoin="round"/>
<path d="M228.153 407.363C228.256 406.1 228.865 404.921 229.857 404.064C230.848 403.207 232.149 402.735 233.496 402.744" stroke="white" stroke-width="0.985332" stroke-linecap="round" stroke-linejoin="round"/>
<path d="M377.91 474.802H231.211V482.13H377.91V474.802Z" fill="white" stroke="#263238" stroke-width="0.985332" stroke-linecap="round" stroke-linejoin="round"/>
<path d="M314.441 441.835C314.441 445.074 309.782 447.7 304.042 447.7C298.301 447.7 293.653 445.074 293.653 441.835C293.653 438.597 298.312 435.97 304.042 435.97C309.771 435.97 314.441 438.597 314.441 441.835Z" fill="white" stroke="#263238" stroke-width="0.985332" stroke-linecap="round" stroke-linejoin="round"/>
<path d="M87.1497 474.574C84.0666 474.43 81.0385 473.751 78.2184 472.57C77.5 472.245 76.943 471.672 76.6636 470.97C76.3841 470.268 76.4039 469.492 76.7188 468.803C77.0337 468.115 77.6193 467.567 78.3534 467.275C79.0874 466.983 79.9132 466.968 80.6582 467.235C83.5065 468.377 87.1608 469.083 88.1433 468.688C89.9318 466.789 92.7029 455.319 89.1259 449.848C88.9381 449.462 88.6546 449.124 88.2993 448.862C87.9439 448.601 87.527 448.423 87.0835 448.343C85.0521 448.084 82.0493 450.046 80.9894 450.98C80.3851 451.474 79.6005 451.728 78.8007 451.689C78.0009 451.65 77.2485 451.321 76.7018 450.771C76.1552 450.22 75.8571 449.492 75.8702 448.739C75.8833 447.986 76.2066 447.268 76.7721 446.734C77.3352 446.236 82.4577 441.908 87.9005 442.582C89.2515 442.772 90.5382 443.251 91.6617 443.981C92.7852 444.712 93.7154 445.675 94.3809 446.797C99.647 454.852 96.048 470.214 91.9963 473.224C90.5896 474.177 88.8811 474.652 87.1497 474.574Z" fill="#263238" stroke="#263238" stroke-width="0.985332" stroke-linecap="round" stroke-linejoin="round"/>
<path d="M81.685 440.216H47.6266V482.722H81.685V440.216Z" fill="#263238" stroke="#263238" stroke-width="0.985332" stroke-linecap="round" stroke-linejoin="round"/>
<path d="M50.7178 437.891C50.7178 437.891 50.7178 434.351 57.6178 430.812C64.5178 427.272 68.2824 421.968 64.5178 411.941C60.7531 401.914 61.3824 394.834 68.9338 388.928" stroke="#263238" stroke-width="0.985332" stroke-linecap="round" stroke-linejoin="round"/>
<path d="M52.2855 400.159C52.6388 395.852 54.6812 392.208 58.9095 388.928" stroke="#263238" stroke-width="0.985332" stroke-linecap="round" stroke-linejoin="round"/>
<path d="M54.4825 411.941C53.7932 410.152 53.2362 408.321 52.8154 406.46" stroke="#263238" stroke-width="0.985332" stroke-linecap="round" stroke-linejoin="round"/>
<path d="M78.7373 415.397C78.4728 414.224 78.1224 413.069 77.6885 411.941L77.1144 410.342" stroke="#263238" stroke-width="0.985332" stroke-linecap="round" stroke-linejoin="round"/>
<path d="M63.8885 437.891C63.8885 437.891 63.8886 434.351 70.7886 430.812C75.315 428.486 78.5165 425.404 79.0796 420.733" stroke="#263238" stroke-width="0.985332" stroke-linecap="round" stroke-linejoin="round"/>
<path d="M529.953 481.995H16.1074V492.687H529.953V481.995Z" fill="#263238"/>
</svg>
