<svg width="841" height="500" viewBox="0 0 841 500" fill="none" xmlns="http://www.w3.org/2000/svg">
<path d="M128.17 317.52C145.44 329.73 198.34 356.11 221.86 352.52C237.71 350.08 277.28 313.09 284.63 300.61C287.63 295.5 250.69 264.23 245.4 267.71C239.64 271.5 215.11 306.54 210.56 307.86C206.01 309.18 162.13 301.78 137.69 300.56C123.05 299.79 120.26 311.93 128.17 317.52Z" fill="#F7A9A0"/>
<path d="M275.89 311.13C284.16 304.05 306.01 273.39 308.96 266.39C311.91 259.39 318.96 238.64 313.82 235.83C308.68 233.02 306.15 238.94 306.15 238.94C306.15 238.94 308.03 228.86 302.31 227.35C297.75 226.15 293.73 234.28 293.73 234.28C293.73 234.28 295.21 223.12 289.35 222.35C284.01 221.65 281.89 231.51 281.89 231.51C281.89 231.51 282.18 222.05 276.89 222.37C270.54 222.75 270.03 239.12 266.19 246.6C265.32 248.3 233.35 280.96 233.35 280.96L275.89 311.13Z" fill="#F7A9A0"/>
<path d="M281.52 231.16C279.89 243.39 278.86 248.4 272.19 258.16C272.06 258.35 272.32 258.59 272.47 258.4C279.87 249.4 281.53 243.53 282.11 231.1C282.14 230.55 281.6 230.59 281.52 231.16Z" fill="#263238"/>
<path d="M293.62 234.31C292.1 246.78 289.5 252.21 283.27 263C283.18 263.16 283.43 263.32 283.53 263.17C290.53 253.1 294.15 246.92 294.03 234.26C294 233.69 293.69 233.74 293.62 234.31Z" fill="#263238"/>
<path d="M305.84 239.47C303.5 251.47 301.14 257.76 293.75 267.47C293.712 267.515 293.693 267.574 293.697 267.633C293.702 267.692 293.73 267.747 293.775 267.785C293.82 267.823 293.879 267.842 293.938 267.838C293.997 267.833 294.052 267.805 294.09 267.76C302.58 258.6 305.59 250.76 306.2 239.59C306.24 238.82 306 238.72 305.84 239.47Z" fill="#263238"/>
<path d="M233.37 281C233.37 281 239.37 268 241.92 261.74C244.47 255.48 249.19 236.66 254.8 235.09C261.11 233.32 262.33 250.9 257.88 262.17C257.88 262.17 273.47 274.53 269.71 285.56C268.89 287.94 260.24 297.63 257.38 298.04L233.37 281Z" fill="#F7A9A0"/>
<path d="M257.84 263.44C264.07 268.03 270.18 276.22 269.61 283.93C269.612 283.972 269.628 284.012 269.657 284.043C269.685 284.074 269.723 284.094 269.764 284.1C269.806 284.106 269.848 284.097 269.884 284.075C269.919 284.053 269.946 284.02 269.96 283.98C271.69 275.8 264.72 266.26 258.9 262.49C257.78 261.77 256.22 262.25 257.84 263.44Z" fill="#263238"/>
<path opacity="0.1" d="M291.53 223.34L270.78 283.2L264 302.71L253.61 332.71C241.61 342.82 229.18 351.38 221.83 352.51C198.31 356.14 145.42 329.74 128.14 317.51C120.22 311.92 123.02 299.79 137.66 300.51C162.1 301.73 205.97 309.13 210.53 307.81C213.42 306.96 224.42 292.47 233.53 281.06L233.37 280.94C233.37 280.94 239.37 267.94 241.91 261.67C244.45 255.4 249.17 236.6 254.79 235.03C259.6 233.68 261.45 243.55 260.09 253.32C263.54 249.69 265.96 247.04 266.2 246.59C270.04 239.1 270.55 222.73 276.89 222.35C282.16 222.03 281.89 231.5 281.89 231.5C281.89 231.5 284.02 221.63 289.36 222.33C290.171 222.431 290.93 222.784 291.53 223.34Z" fill="black"/>
<path d="M197.09 355.93L209.63 306.6C209.63 306.6 160.63 298.78 136.55 299.06C116.33 299.3 111.92 313.71 134.42 326.53C155.71 338.67 197.09 355.93 197.09 355.93Z" fill="#EBEBEB"/>
<path d="M196.71 309C195.576 311.877 194.615 314.819 193.83 317.81C192.9 320.86 192.09 323.94 191.27 327C190.45 330.06 187.63 342.43 186.93 345.51C186.93 345.65 187.15 345.68 187.19 345.51C188.13 342.46 191.83 330.36 192.62 327.34C193.41 324.32 194.23 321.34 194.93 318.34C195.759 315.285 196.403 312.183 196.86 309.05C196.87 309 196.74 309 196.71 309Z" fill="#263238"/>
<path opacity="0.1" d="M200.78 341.41L197.09 355.93C197.09 355.93 155.72 338.67 134.42 326.53C114.65 315.26 115.65 302.77 129.9 299.76L200.78 341.41Z" fill="black"/>
<path d="M185.15 465.46L45.73 465.22C46.08 462.35 75.17 333.03 108.89 303.22C120.47 292.99 142.63 300.59 145.41 302.86C172.38 324.9 187.18 463.78 185.15 465.46Z" fill="#E88510"/>
<path d="M185.07 457.93H47.33C48.22 454.1 49.47 448.93 51.03 442.78H183.63C184.31 448.9 184.8 454.07 185.07 457.93ZM179.92 414.61H58.67C57.14 419.91 55.73 424.99 54.44 429.75H182.05C181.42 425 180.71 419.9 179.92 414.61ZM175.16 386.45H67.33C65.65 391.54 64.05 396.61 62.53 401.59H177.86C177 396.61 176.13 391.53 175.16 386.45ZM169.16 358.27H77.43C75.49 363.27 73.6 368.27 71.79 373.42H172.56C171.47 368.29 170.32 363.21 169.11 358.27H169.16ZM160.89 330.11H90C87.55 334.84 85.15 339.93 82.82 345.25H165.68C164.14 339.89 162.53 334.81 160.84 330.11H160.89ZM145.46 302.87C144.948 302.508 144.402 302.197 143.83 301.94H110.55C109.968 302.336 109.414 302.77 108.89 303.24C104.502 307.333 100.673 311.987 97.5 317.08H155.42C152.3 310.71 149 305.78 145.41 302.87H145.46Z" fill="#EBEBEB"/>
<path d="M148.06 299.46L140.82 319.54L113.18 296.43L108.18 306.11C108.18 306.11 135.29 341.81 135.29 340.11L141.95 323.21L154.59 333.47L151.18 305.27L148.06 299.46Z" fill="#E88510"/>
<path d="M153.72 319.41C152.99 314.78 152.4 310.08 151.45 305.49C151.45 305.32 151.14 305.27 151.11 305.49C150.53 310.08 153.4 327.8 153.75 332.08L153.7 332.03C153.17 331.59 142.03 323.03 141.94 323.21C140.42 325.94 135.52 338.21 135.21 339.35C130.92 333.68 112.87 311.42 107.92 306.13C107.78 305.98 107.53 306.13 107.64 306.32C111.52 312.32 134.89 341.78 135.18 341.67C135.39 341.8 141.49 326.67 142.13 323.82C144.05 325.72 155.4 335.46 155.37 334.76C155.096 329.617 154.545 324.493 153.72 319.41Z" fill="#263238"/>
<path d="M142.35 323.7C134.35 325.84 120.19 313.95 114.44 304.15C114.05 303.48 114.88 296.25 115.44 287.41C115.78 282.05 116.04 276.07 115.88 270.6C115.88 269.48 150.45 277.92 150.45 277.92C150.45 277.92 147.45 289.49 147.75 299.03C147.784 299.784 147.885 300.534 148.05 301.27C148.078 301.392 148.098 301.516 148.11 301.64C149 305.89 150.07 321.62 142.35 323.7Z" fill="#F7A9A0"/>
<path d="M118 270.68C119.87 279.88 126.28 302.07 144.61 301.94C145.783 301.942 146.954 301.845 148.11 301.65C148.128 301.524 148.128 301.396 148.11 301.27C147.942 300.537 147.839 299.791 147.8 299.04C147.46 289.49 150.51 277.92 150.51 277.92C150.51 277.92 125.52 271.82 118 270.68Z" fill="#263238"/>
<path d="M104.7 234.89C103.01 247.5 115.08 281.16 124.9 287.49C139.13 296.66 159.59 294.39 166.66 277.93C173.52 261.98 157.03 218.39 146.32 212.93C130.56 204.9 107.19 216.25 104.7 234.89Z" fill="#F7A9A0"/>
<path d="M113 270.64C119.84 268.56 122.49 259.97 120 246.54C117.51 233.11 118.39 227.67 124.27 224.2C130.15 220.73 138.67 224.87 142 223.9C145.33 222.93 143.06 217.61 145.82 216.9C147.18 216.54 152.05 219.59 157.61 228.11C157.61 228.11 151.26 202.91 124.41 211.4C99.41 219.3 102.41 240.31 103.95 246.4C106.41 256.36 113 270.64 113 270.64Z" fill="#263238"/>
<path d="M95.1 224C94.54 223.75 104.48 206.59 108.82 203C113.16 199.41 135.4 197.61 136.42 199C137.44 200.39 96.41 224.62 95.1 224Z" fill="#EBEBEB"/>
<path opacity="0.1" d="M136.41 199C137.41 200.37 96.41 224.62 95.1 224C94.82 223.88 97.22 219.43 100.22 214.6C100.22 214.6 100.22 214.6 100.22 214.54C103.96 210.62 108.54 206.28 109.56 205.32C110.58 204.36 115.68 201.86 120.37 199.61C127.77 198.49 135.81 198.19 136.41 199Z" fill="black"/>
<path d="M105.18 252.63C104.45 252.88 94.02 239.75 92.26 237.97C90.5 236.19 86.46 235.56 86.13 234.09C85.8 232.62 103.03 212.55 110.87 206.74C118.71 200.93 148.96 193.92 149.47 194.93C149.98 195.94 149.14 198.59 149.47 200.87C149.8 203.15 154.87 219.61 154 219.75C145.12 221.1 130.64 226.48 124.76 231.14C120 235 107.65 251.8 105.18 252.63Z" fill="#EBEBEB"/>
<path d="M93 238.8L91.57 237.13C92.27 236.34 108.74 217.79 114.92 213.13C118.99 210.05 143.97 200.8 149.25 199.8L149.75 201.99C144.75 202.99 119.93 212.13 116.1 214.99C110 219.58 93.14 238.61 93 238.8Z" fill="#E88510"/>
<path d="M119.1 260.45C119.1 260.45 123.29 268.19 119.23 274C115.17 279.81 116.52 287.59 119.32 290.09C119.32 290.09 114.32 304.17 127.32 306.7C127.32 306.7 126.43 321.03 142.22 322.48C142.22 322.48 146.97 327.31 154.9 323.48C154.9 323.48 167.82 326.81 173.52 316.63C173.52 316.63 187.2 317.91 187.75 301.52C187.75 301.52 196.36 294.61 190.15 285.52C190.15 285.52 196.27 278.52 188.2 272.72C188.2 272.72 191.47 261.51 177.72 258.66C177.792 257.33 177.338 256.025 176.457 255.027C175.576 254.028 174.338 253.415 173.01 253.32C173.01 253.32 166.1 250.32 164.66 246.32C164.66 246.32 167.21 254.74 162.73 257.26C158.73 259.52 153.65 258.86 153.65 258.86C153.65 258.86 148.16 265.92 135.43 265.67C124.43 265.45 119.49 253.79 119.49 253.79L119.1 260.45Z" fill="#263238"/>
<path d="M120.43 262C120.43 262 110.53 252.27 105.98 256C101.43 259.73 110.31 274.85 116.67 276C117.477 276.199 118.316 276.232 119.136 276.098C119.957 275.965 120.742 275.667 121.444 275.222C122.146 274.777 122.752 274.196 123.224 273.511C123.695 272.827 124.024 272.054 124.19 271.24L120.43 262Z" fill="#F7A9A0"/>
<path d="M108.63 260.22C108.53 260.22 108.54 260.37 108.63 260.39C113.12 261.3 116.04 264.77 118.32 268.5C116.79 267.18 114.94 266.65 113.15 268.5C113.05 268.6 113.15 268.75 113.3 268.7C113.993 268.333 114.782 268.187 115.56 268.284C116.338 268.381 117.068 268.714 117.65 269.24C118.611 270.146 119.472 271.152 120.22 272.24C120.49 272.58 121.13 272.24 120.9 271.85C120.887 271.818 120.87 271.788 120.85 271.76C120 266.38 114.45 259.7 108.63 260.22Z" fill="#263238"/>
<path d="M156.11 245.78C156.11 245.69 156.32 245.83 156.35 245.92C157.08 248.22 158.35 250.73 160.62 250.76C160.69 250.76 160.72 250.88 160.62 250.89C158 251.42 156.43 248.07 156.11 245.78Z" fill="#263238"/>
<path d="M157.3 242.7C160.86 241.13 163.72 248.36 160.43 249.81C157.14 251.26 154.32 244 157.3 242.7Z" fill="#263238"/>
<path d="M137 248.86C138.07 248.66 139 248.29 140.07 247.99C141.207 247.839 142.262 247.315 143.07 246.5C143.273 246.199 143.369 245.838 143.344 245.476C143.318 245.114 143.173 244.77 142.93 244.5C141.84 243.4 140.29 243.5 138.86 243.82C137.404 244.135 136.117 244.979 135.25 246.19C135.073 246.475 134.981 246.805 134.985 247.14C134.989 247.475 135.089 247.803 135.273 248.083C135.457 248.364 135.717 248.586 136.023 248.724C136.329 248.861 136.668 248.909 137 248.86Z" fill="#263238"/>
<path d="M158.47 236.79C157.406 236.817 156.341 236.783 155.28 236.69C154.05 236.64 153.07 236.69 152.04 235.97C151.766 235.724 151.582 235.393 151.518 235.031C151.455 234.668 151.515 234.294 151.69 233.97C152.49 232.63 154 232.32 155.48 232.32C156.966 232.273 158.416 232.779 159.55 233.74C159.803 233.974 159.982 234.276 160.065 234.611C160.148 234.945 160.131 235.296 160.016 235.621C159.901 235.946 159.693 236.23 159.418 236.437C159.143 236.645 158.814 236.768 158.47 236.79Z" fill="#263238"/>
<path d="M147.55 272.32C148.243 272.809 149.084 273.042 149.93 272.98C150.769 272.667 151.533 272.179 152.17 271.55C152.185 271.54 152.202 271.534 152.22 271.534C152.238 271.533 152.255 271.538 152.27 271.548C152.285 271.558 152.297 271.572 152.304 271.588C152.311 271.604 152.313 271.622 152.31 271.64C152.143 272.2 151.826 272.704 151.395 273.099C150.963 273.493 150.433 273.763 149.86 273.88C149.355 273.921 148.849 273.812 148.406 273.566C147.963 273.321 147.603 272.95 147.37 272.5C147.28 272.38 147.44 272.27 147.55 272.32Z" fill="white"/>
<path d="M137.14 252.36C137.662 251.941 138.246 251.603 138.87 251.36C139.513 251.123 140.186 250.981 140.87 250.94C141.609 250.915 142.346 251.034 143.04 251.29C143.782 251.576 144.449 252.028 144.99 252.61L145.99 253.67L144.64 253.89C143.685 254.044 142.749 254.303 141.85 254.66C140.909 255.02 140.083 255.628 139.46 256.42C139.567 255.862 139.785 255.331 140.099 254.857C140.413 254.383 140.818 253.976 141.29 253.66C142.204 253.014 143.248 252.577 144.35 252.38L144 253.66C143.16 252.848 142.072 252.341 140.91 252.22C139.653 252.104 138.385 252.151 137.14 252.36Z" fill="#263238"/>
<path d="M142.59 256.9C143.501 256.37 144.336 255.717 145.07 254.96C145.23 254.76 145.83 253.96 145.73 253.76C145.459 253.258 145.123 252.794 144.73 252.38C145.228 252.71 145.656 253.134 145.99 253.63C146.02 253.938 145.982 254.25 145.878 254.542C145.775 254.834 145.608 255.1 145.39 255.32C144.624 256.1 143.653 256.647 142.59 256.9Z" fill="#263238"/>
<path d="M148.27 269C150.73 266.81 154.56 265.82 157.01 265.25C157.26 265.12 157.31 264.52 157.26 264.25L155.35 259.5C156.1 259.59 159.85 259.86 159.47 258.97C156.28 251.67 152.74 243.54 148.03 236.97C148.016 236.944 147.998 236.922 147.975 236.903C147.952 236.885 147.926 236.871 147.899 236.863C147.871 236.855 147.842 236.852 147.813 236.855C147.784 236.858 147.756 236.866 147.73 236.88C147.704 236.894 147.682 236.912 147.663 236.935C147.645 236.958 147.631 236.984 147.623 237.011C147.615 237.039 147.612 237.068 147.615 237.097C147.618 237.126 147.626 237.154 147.64 237.18C150.43 244.32 154.44 250.93 157.35 258.06C156.012 257.948 154.666 258.026 153.35 258.29C153.13 258.45 155.62 263.2 155.82 264.01C155.82 264.01 150.74 264.31 147.87 268.06C147.13 269 147.09 270 148.27 269Z" fill="#263238"/>
<path d="M148.27 269C150.73 266.81 154.56 265.82 157.01 265.25C157.26 265.12 157.31 264.52 157.26 264.25L155.54 259.97C155 259.2 153.75 259.59 154.03 260.1C154.31 260.61 155.62 263.17 155.82 263.98C155.82 263.98 150.74 264.28 147.87 268.03C147.13 269 147.09 270 148.27 269Z" fill="white"/>
<path d="M234.77 256.65L157.22 257.27L156.18 239.68L233.26 231.16L234.77 256.65Z" fill="#37474F"/>
<path d="M278.5 261.23L200.83 259.64L199.21 232.19L276.15 221.46L278.5 261.23Z" fill="#455A64"/>
<path d="M315.87 268.31L256.64 262.74L254.26 222.53L312.42 210.03L315.87 268.31Z" fill="#37474F"/>
<path d="M318.13 238.93C319 253.63 317.92 265.65 315.72 265.78C313.52 265.91 311.02 254.1 310.15 239.4C309.28 224.7 310.37 212.69 312.57 212.56C314.77 212.43 317.26 224.24 318.13 238.93Z" fill="#E88510"/>
<path d="M109.57 333.61C134.65 360.1 201.17 403.61 215.9 397.66C243.07 386.61 253.57 308.86 257.07 293.76C258.56 287.32 203.07 282.89 201.32 289.76C199.81 295.76 197.23 336.6 192.15 338.07C190.07 338.68 159.66 326.25 125.15 318.29C98.67 312.17 102.15 325.77 109.57 333.61Z" fill="#F7A9A0"/>
<path d="M199.65 302.35C199.65 302.35 201.03 295.99 199.73 280.18C198.73 267.82 204.93 238.07 235.84 221.99C247.69 215.83 257.18 221.45 246.01 229.99C238.15 235.99 232.18 239.55 230.16 242.24C230.16 242.24 245.35 242.5 250.32 249.76C254.685 256.122 258.589 262.789 262 269.71C260.877 270.619 259.698 271.458 258.47 272.22C260.177 275.262 260.988 278.725 260.811 282.209C260.634 285.693 259.476 289.056 257.47 291.91L254.83 305.22L199.65 302.35Z" fill="#F7A9A0"/>
<path d="M202.2 269.31C205.93 264 214 252.84 223.81 246C234.69 238.43 257.68 226.77 263.18 234.86C267.18 240.79 258.83 246.01 258.83 246.01C258.83 246.01 269.35 243.19 271.83 249.35C274.08 254.95 267.36 258.6 267.36 258.6C267.36 258.6 274.03 257.99 275.16 263.81C276.53 270.81 262.31 270.95 257.57 279.23C256.5 281.11 202.2 269.31 202.2 269.31Z" fill="#F7A9A0"/>
<path d="M229.89 258.84C234.22 254.41 246.63 246.84 258.59 245.9C258.86 245.9 259.02 246.08 258.78 246.15C248.7 249.246 239.035 253.562 230 259C229.9 259 229.85 258.89 229.89 258.84Z" fill="#263238"/>
<path d="M237.86 269.6C241.98 266.16 255.12 258.96 267.27 258.4C267.54 258.4 267.69 258.59 267.45 258.65C257.22 261.206 247.313 264.917 237.92 269.71C237.86 269.74 237.8 269.64 237.86 269.6Z" fill="#263238"/>
<path d="M169.51 382.67L190.82 336.45C190.82 336.45 144 319.83 120.33 315.73C100.41 312.28 93.45 325.65 113.24 342.35C132 358.16 169.51 382.67 169.51 382.67Z" fill="#EBEBEB"/>
<path d="M177.68 336.47C176.043 339.095 174.56 341.813 173.24 344.61C171.77 347.44 170.42 350.32 169.05 353.19C167.68 356.06 162.66 367.69 161.41 370.59C161.41 370.72 161.6 370.8 161.66 370.68C163.14 367.85 168.98 356.62 170.31 353.8C171.64 350.98 172.99 348.17 174.23 345.32C175.603 342.469 176.802 339.537 177.82 336.54C177.83 336.48 177.72 336.41 177.68 336.47Z" fill="#263238"/>
<path d="M120.18 348C132.94 356.08 145.18 364.9 157.4 373.72C161.47 376.66 165.51 379.65 169.66 382.44L169.24 382.57C170.04 381.16 170.84 379.76 171.68 378.37C171.04 379.97 170.35 381.55 169.68 383.13L169.38 382.98C160.38 378.27 152.26 372.36 144.03 366.54C135.8 360.72 127.87 354.54 120.2 348H120.18Z" fill="#263238"/>
<path d="M121.63 351.07C124.488 352.167 127.248 353.506 129.88 355.07C126.837 354.452 124 353.076 121.63 351.07Z" fill="#263238"/>
<path d="M45.75 465.26C176.61 464.64 323.39 464.64 454.25 465.26C323.39 465.87 176.61 465.87 45.75 465.26Z" fill="#263238"/>
<g opacity="0.2">
<path d="M583.5 168C650.33 168 712.221 174.923 759.293 187.332C805.783 199.478 841 218.525 841 240.765C841 263.575 805.696 282.337 759.293 294.483C712.221 307.177 650.447 313.872 583.5 314.1C515.798 313.815 454.75 307.177 407.649 294.483C360.577 282.337 326 263.575 326 240.765C326 218.525 360.577 199.478 407.649 187.332C454.75 174.9 515.798 168 583.5 168Z" fill="#E88510"/>
</g>
<g opacity="0.2">
<path d="M583.515 178.419C640.901 178.419 693.93 184.361 734.202 195.002C773.981 205.403 804.229 221.735 804.229 240.793C804.229 260.353 773.981 276.435 734.202 286.847C693.843 297.728 640.901 303.419 583.515 303.67C525.401 303.419 473.099 297.728 432.769 286.847C392.409 276.435 362.771 260.353 362.771 240.793C362.771 221.735 392.409 205.437 432.769 195.002C473.157 184.361 525.488 178.419 583.515 178.419Z" fill="#E88510"/>
</g>
<g opacity="0.2">
<path d="M583.515 195.355C625.385 195.355 664.001 199.689 693.465 207.456C722.522 215.041 744.546 226.959 744.546 240.862C744.546 255.13 722.463 266.866 693.465 274.461C664.001 282.445 625.385 286.551 583.515 286.733C541.179 286.551 502.999 282.399 473.535 274.461C444.101 266.866 422.454 255.073 422.454 240.862C422.454 226.959 444.101 215.041 473.535 207.456C502.999 199.689 541.063 195.355 583.515 195.355Z" fill="#E88510"/>
</g>
<path d="M368.452 258.771C364.691 258.771 361.451 257.967 358.733 256.359C356.032 254.735 353.944 252.457 352.469 249.523C351.01 246.574 350.281 243.118 350.281 239.158C350.281 235.247 351.01 231.8 352.469 228.817C353.944 225.834 355.999 223.505 358.634 221.832C361.285 220.158 364.384 219.321 367.93 219.321C370.085 219.321 372.173 219.677 374.195 220.39C376.216 221.103 378.031 222.221 379.638 223.746C381.246 225.27 382.514 227.251 383.442 229.687C384.37 232.106 384.834 235.048 384.834 238.511V241.146H354.482V235.578H377.55C377.55 233.623 377.153 231.891 376.357 230.383C375.562 228.858 374.443 227.657 373.001 226.778C371.576 225.9 369.902 225.461 367.98 225.461C365.892 225.461 364.069 225.975 362.511 227.002C360.97 228.013 359.777 229.339 358.932 230.979C358.103 232.603 357.689 234.368 357.689 236.274V240.624C357.689 243.176 358.136 245.347 359.031 247.137C359.943 248.927 361.21 250.294 362.835 251.239C364.459 252.167 366.356 252.631 368.527 252.631C369.936 252.631 371.22 252.432 372.38 252.034C373.54 251.62 374.543 251.007 375.388 250.195C376.233 249.383 376.879 248.38 377.327 247.187L384.362 248.455C383.798 250.526 382.787 252.341 381.329 253.898C379.887 255.44 378.072 256.641 375.885 257.503C373.714 258.348 371.237 258.771 368.452 258.771ZM400.513 235.33V258H393.08V219.818H400.215V226.033H400.687C401.565 224.011 402.941 222.387 404.813 221.161C406.703 219.934 409.081 219.321 411.948 219.321C414.549 219.321 416.828 219.868 418.784 220.962C420.739 222.039 422.255 223.646 423.333 225.784C424.41 227.922 424.948 230.565 424.948 233.714V258H417.516V234.609C417.516 231.841 416.795 229.679 415.353 228.121C413.911 226.546 411.931 225.759 409.412 225.759C407.689 225.759 406.156 226.132 404.813 226.878C403.488 227.624 402.435 228.717 401.656 230.159C400.894 231.584 400.513 233.308 400.513 235.33ZM450.999 258.771C447.304 258.771 444.122 257.934 441.454 256.26C438.802 254.57 436.764 252.241 435.339 249.275C433.914 246.308 433.201 242.911 433.201 239.083C433.201 235.205 433.93 231.783 435.389 228.817C436.847 225.834 438.902 223.505 441.553 221.832C444.205 220.158 447.329 219.321 450.925 219.321C453.825 219.321 456.41 219.86 458.681 220.937C460.951 221.997 462.782 223.489 464.174 225.411C465.583 227.334 466.42 229.579 466.685 232.148H459.451C459.053 230.358 458.142 228.817 456.717 227.524C455.308 226.232 453.419 225.585 451.049 225.585C448.978 225.585 447.163 226.132 445.605 227.226C444.064 228.303 442.863 229.844 442.001 231.849C441.139 233.838 440.708 236.191 440.708 238.909C440.708 241.693 441.131 244.096 441.976 246.118C442.821 248.14 444.014 249.706 445.556 250.816C447.113 251.926 448.945 252.482 451.049 252.482C452.458 252.482 453.734 252.225 454.877 251.711C456.037 251.181 457.007 250.427 457.786 249.449C458.581 248.471 459.136 247.295 459.451 245.919H466.685C466.42 248.388 465.616 250.592 464.274 252.531C462.931 254.47 461.133 255.995 458.879 257.105C456.642 258.215 454.016 258.771 450.999 258.771ZM490.716 258.771C487.137 258.771 484.013 257.95 481.345 256.31C478.677 254.669 476.605 252.374 475.13 249.424C473.655 246.474 472.918 243.027 472.918 239.083C472.918 235.122 473.655 231.659 475.13 228.692C476.605 225.726 478.677 223.423 481.345 221.782C484.013 220.141 487.137 219.321 490.716 219.321C494.296 219.321 497.42 220.141 500.088 221.782C502.756 223.423 504.827 225.726 506.302 228.692C507.777 231.659 508.515 235.122 508.515 239.083C508.515 243.027 507.777 246.474 506.302 249.424C504.827 252.374 502.756 254.669 500.088 256.31C497.42 257.95 494.296 258.771 490.716 258.771ZM490.741 252.531C493.061 252.531 494.984 251.918 496.508 250.692C498.033 249.465 499.16 247.833 499.889 245.795C500.635 243.756 501.007 241.511 501.007 239.058C501.007 236.622 500.635 234.385 499.889 232.347C499.16 230.292 498.033 228.643 496.508 227.4C494.984 226.157 493.061 225.536 490.741 225.536C488.404 225.536 486.466 226.157 484.924 227.4C483.4 228.643 482.265 230.292 481.519 232.347C480.79 234.385 480.425 236.622 480.425 239.058C480.425 241.511 480.79 243.756 481.519 245.795C482.265 247.833 483.4 249.465 484.924 250.692C486.466 251.918 488.404 252.531 490.741 252.531ZM524.243 235.33V258H516.811V219.818H523.945V226.033H524.417C525.296 224.011 526.671 222.387 528.544 221.161C530.433 219.934 532.811 219.321 535.678 219.321C538.28 219.321 540.559 219.868 542.514 220.962C544.47 222.039 545.986 223.646 547.063 225.784C548.14 227.922 548.679 230.565 548.679 233.714V258H541.246V234.609C541.246 231.841 540.525 229.679 539.084 228.121C537.642 226.546 535.662 225.759 533.143 225.759C531.419 225.759 529.886 226.132 528.544 226.878C527.218 227.624 526.166 228.717 525.387 230.159C524.625 231.584 524.243 233.308 524.243 235.33ZM576.47 219.818V225.784H555.614V219.818H576.47ZM561.207 210.67H568.64V246.789C568.64 248.231 568.855 249.316 569.286 250.045C569.717 250.758 570.272 251.247 570.952 251.512C571.648 251.761 572.402 251.885 573.214 251.885C573.81 251.885 574.332 251.844 574.78 251.761C575.227 251.678 575.575 251.612 575.824 251.562L577.166 257.702C576.735 257.867 576.122 258.033 575.327 258.199C574.531 258.381 573.537 258.481 572.344 258.497C570.388 258.53 568.565 258.182 566.875 257.453C565.184 256.724 563.817 255.597 562.773 254.072C561.729 252.548 561.207 250.634 561.207 248.33V210.67ZM584.692 258V219.818H591.876V225.884H592.273C592.969 223.829 594.196 222.213 595.952 221.036C597.726 219.843 599.731 219.246 601.968 219.246C602.432 219.246 602.979 219.263 603.609 219.296C604.255 219.329 604.76 219.371 605.125 219.42V226.53C604.827 226.447 604.296 226.356 603.534 226.256C602.772 226.14 602.009 226.082 601.247 226.082C599.491 226.082 597.924 226.455 596.549 227.201C595.19 227.93 594.113 228.949 593.317 230.259C592.522 231.551 592.124 233.026 592.124 234.683V258H584.692ZM626.646 258.771C622.884 258.771 619.644 257.967 616.926 256.359C614.225 254.735 612.137 252.457 610.662 249.523C609.204 246.574 608.475 243.118 608.475 239.158C608.475 235.247 609.204 231.8 610.662 228.817C612.137 225.834 614.192 223.505 616.827 221.832C619.478 220.158 622.577 219.321 626.124 219.321C628.278 219.321 630.366 219.677 632.388 220.39C634.41 221.103 636.224 222.221 637.832 223.746C639.439 225.27 640.707 227.251 641.635 229.687C642.563 232.106 643.027 235.048 643.027 238.511V241.146H612.676V235.578H635.744C635.744 233.623 635.346 231.891 634.551 230.383C633.755 228.858 632.637 227.657 631.195 226.778C629.77 225.9 628.096 225.461 626.173 225.461C624.085 225.461 622.262 225.975 620.705 227.002C619.164 228.013 617.97 229.339 617.125 230.979C616.297 232.603 615.882 234.368 615.882 236.274V240.624C615.882 243.176 616.33 245.347 617.225 247.137C618.136 248.927 619.404 250.294 621.028 251.239C622.652 252.167 624.549 252.631 626.72 252.631C628.129 252.631 629.413 252.432 630.573 252.034C631.733 251.62 632.736 251.007 633.581 250.195C634.426 249.383 635.073 248.38 635.52 247.187L642.555 248.455C641.991 250.526 640.981 252.341 639.522 253.898C638.08 255.44 636.266 256.641 634.078 257.503C631.907 258.348 629.43 258.771 626.646 258.771ZM680.911 258.845C678.491 258.845 676.304 258.398 674.348 257.503C672.393 256.591 670.843 255.274 669.7 253.55C668.573 251.827 668.009 249.714 668.009 247.212C668.009 245.057 668.424 243.284 669.252 241.892C670.081 240.5 671.2 239.398 672.608 238.586C674.017 237.774 675.591 237.161 677.331 236.746C679.071 236.332 680.844 236.017 682.651 235.802C684.938 235.537 686.794 235.321 688.219 235.156C689.644 234.973 690.68 234.683 691.326 234.286C691.972 233.888 692.296 233.241 692.296 232.347V232.173C692.296 230.002 691.682 228.32 690.456 227.126C689.246 225.933 687.44 225.337 685.037 225.337C682.535 225.337 680.563 225.892 679.121 227.002C677.696 228.096 676.71 229.314 676.163 230.656L669.178 229.065C670.006 226.745 671.216 224.873 672.807 223.447C674.414 222.006 676.262 220.962 678.35 220.315C680.438 219.652 682.634 219.321 684.938 219.321C686.462 219.321 688.078 219.503 689.785 219.868C691.508 220.216 693.116 220.862 694.607 221.807C696.115 222.751 697.35 224.102 698.311 225.859C699.272 227.599 699.753 229.861 699.753 232.645V258H692.494V252.78H692.196C691.716 253.741 690.995 254.686 690.034 255.614C689.072 256.542 687.838 257.312 686.33 257.925C684.822 258.539 683.015 258.845 680.911 258.845ZM682.526 252.879C684.581 252.879 686.338 252.473 687.796 251.661C689.271 250.849 690.39 249.789 691.152 248.479C691.931 247.154 692.32 245.737 692.32 244.229V239.307C692.055 239.572 691.542 239.821 690.779 240.053C690.034 240.268 689.18 240.459 688.219 240.624C687.258 240.773 686.321 240.914 685.41 241.047C684.499 241.163 683.736 241.262 683.123 241.345C681.681 241.527 680.364 241.834 679.171 242.265C677.994 242.696 677.049 243.317 676.337 244.129C675.641 244.925 675.293 245.985 675.293 247.311C675.293 249.151 675.972 250.543 677.331 251.487C678.69 252.415 680.422 252.879 682.526 252.879ZM735.43 272.318V252.059H734.983C734.536 252.871 733.889 253.799 733.044 254.843C732.215 255.887 731.072 256.799 729.614 257.577C728.155 258.356 726.266 258.746 723.946 258.746C720.864 258.746 718.113 257.959 715.693 256.384C713.29 254.793 711.401 252.531 710.026 249.598C708.667 246.648 707.987 243.11 707.987 238.984C707.987 234.857 708.675 231.327 710.05 228.394C711.442 225.461 713.348 223.215 715.768 221.658C718.187 220.1 720.93 219.321 723.996 219.321C726.366 219.321 728.271 219.719 729.713 220.514C731.171 221.293 732.298 222.205 733.094 223.249C733.906 224.293 734.536 225.212 734.983 226.008H735.604V219.818H742.863V272.318H735.43ZM725.587 252.407C727.724 252.407 729.531 251.844 731.006 250.717C732.497 249.573 733.624 247.991 734.386 245.969C735.165 243.947 735.555 241.594 735.555 238.909C735.555 236.258 735.174 233.937 734.411 231.949C733.649 229.96 732.53 228.411 731.055 227.3C729.58 226.19 727.758 225.635 725.587 225.635C723.349 225.635 721.485 226.215 719.994 227.375C718.502 228.535 717.375 230.118 716.613 232.123C715.867 234.128 715.494 236.39 715.494 238.909C715.494 241.461 715.875 243.756 716.638 245.795C717.4 247.833 718.527 249.449 720.018 250.642C721.527 251.819 723.383 252.407 725.587 252.407ZM777.043 242.165V219.818H784.5V258H777.192V251.388H776.794C775.916 253.426 774.507 255.125 772.568 256.484C770.646 257.826 768.251 258.497 765.384 258.497C762.932 258.497 760.761 257.959 758.871 256.881C756.999 255.788 755.524 254.172 754.447 252.034C753.386 249.896 752.856 247.253 752.856 244.104V219.818H760.288V243.21C760.288 245.811 761.009 247.883 762.451 249.424C763.893 250.965 765.765 251.736 768.069 251.736C769.461 251.736 770.845 251.388 772.22 250.692C773.612 249.996 774.764 248.943 775.675 247.535C776.603 246.126 777.059 244.336 777.043 242.165ZM794.487 258V219.818H801.919V258H794.487ZM798.24 213.927C796.948 213.927 795.837 213.496 794.909 212.634C793.998 211.756 793.542 210.712 793.542 209.502C793.542 208.276 793.998 207.232 794.909 206.37C795.837 205.492 796.948 205.053 798.24 205.053C799.533 205.053 800.635 205.492 801.546 206.37C802.474 207.232 802.938 208.276 802.938 209.502C802.938 210.712 802.474 211.756 801.546 212.634C800.635 213.496 799.533 213.927 798.24 213.927ZM821.29 207.091L820.643 243.359H813.758L813.112 207.091H821.29ZM817.213 258.472C815.838 258.472 814.661 257.992 813.683 257.031C812.705 256.053 812.225 254.876 812.241 253.501C812.225 252.142 812.705 250.982 813.683 250.021C814.661 249.043 815.838 248.554 817.213 248.554C818.555 248.554 819.715 249.043 820.693 250.021C821.671 250.982 822.168 252.142 822.185 253.501C822.168 254.412 821.928 255.249 821.464 256.011C821.016 256.757 820.42 257.354 819.674 257.801C818.928 258.249 818.108 258.472 817.213 258.472Z" fill="white"/>
<g opacity="0.2">
<path d="M583.5 168C650.33 168 712.221 174.923 759.293 187.332C805.783 199.478 841 218.525 841 240.765C841 263.575 805.696 282.337 759.293 294.483C712.221 307.177 650.447 313.872 583.5 314.1C515.798 313.815 454.75 307.177 407.649 294.483C360.577 282.337 326 263.575 326 240.765C326 218.525 360.577 199.478 407.649 187.332C454.75 174.9 515.798 168 583.5 168Z" fill="#E88510"/>
</g>
<g opacity="0.2">
<path d="M583.515 178.419C640.901 178.419 693.93 184.361 734.202 195.002C773.981 205.403 804.229 221.735 804.229 240.793C804.229 260.353 773.981 276.435 734.202 286.847C693.843 297.728 640.901 303.419 583.515 303.67C525.401 303.419 473.099 297.728 432.769 286.847C392.409 276.435 362.771 260.353 362.771 240.793C362.771 221.735 392.409 205.437 432.769 195.002C473.157 184.361 525.488 178.419 583.515 178.419Z" fill="#E88510"/>
</g>
<g opacity="0.2">
<path d="M583.515 195.355C625.385 195.355 664.001 199.689 693.465 207.456C722.522 215.041 744.546 226.959 744.546 240.862C744.546 255.13 722.463 266.866 693.465 274.461C664.001 282.445 625.385 286.551 583.515 286.733C541.179 286.551 502.999 282.399 473.535 274.461C444.101 266.866 422.454 255.073 422.454 240.862C422.454 226.959 444.101 215.041 473.535 207.456C502.999 199.689 541.063 195.355 583.515 195.355Z" fill="#E88510"/>
</g>
<path d="M368.452 258.771C364.691 258.771 361.451 257.967 358.733 256.359C356.032 254.735 353.944 252.457 352.469 249.523C351.01 246.574 350.281 243.118 350.281 239.158C350.281 235.247 351.01 231.8 352.469 228.817C353.944 225.834 355.999 223.505 358.634 221.832C361.285 220.158 364.384 219.321 367.93 219.321C370.085 219.321 372.173 219.677 374.195 220.39C376.216 221.103 378.031 222.221 379.638 223.746C381.246 225.27 382.514 227.251 383.442 229.687C384.37 232.106 384.834 235.048 384.834 238.511V241.146H354.482V235.578H377.55C377.55 233.623 377.153 231.891 376.357 230.383C375.562 228.858 374.443 227.657 373.001 226.778C371.576 225.9 369.902 225.461 367.98 225.461C365.892 225.461 364.069 225.975 362.511 227.002C360.97 228.013 359.777 229.339 358.932 230.979C358.103 232.603 357.689 234.368 357.689 236.274V240.624C357.689 243.176 358.136 245.347 359.031 247.137C359.943 248.927 361.21 250.294 362.835 251.239C364.459 252.167 366.356 252.631 368.527 252.631C369.936 252.631 371.22 252.432 372.38 252.034C373.54 251.62 374.543 251.007 375.388 250.195C376.233 249.383 376.879 248.38 377.327 247.187L384.362 248.455C383.798 250.526 382.787 252.341 381.329 253.898C379.887 255.44 378.072 256.641 375.885 257.503C373.714 258.348 371.237 258.771 368.452 258.771ZM400.513 235.33V258H393.08V219.818H400.215V226.033H400.687C401.565 224.011 402.941 222.387 404.813 221.161C406.703 219.934 409.081 219.321 411.948 219.321C414.549 219.321 416.828 219.868 418.784 220.962C420.739 222.039 422.255 223.646 423.333 225.784C424.41 227.922 424.948 230.565 424.948 233.714V258H417.516V234.609C417.516 231.841 416.795 229.679 415.353 228.121C413.911 226.546 411.931 225.759 409.412 225.759C407.689 225.759 406.156 226.132 404.813 226.878C403.488 227.624 402.435 228.717 401.656 230.159C400.894 231.584 400.513 233.308 400.513 235.33ZM450.999 258.771C447.304 258.771 444.122 257.934 441.454 256.26C438.802 254.57 436.764 252.241 435.339 249.275C433.914 246.308 433.201 242.911 433.201 239.083C433.201 235.205 433.93 231.783 435.389 228.817C436.847 225.834 438.902 223.505 441.553 221.832C444.205 220.158 447.329 219.321 450.925 219.321C453.825 219.321 456.41 219.86 458.681 220.937C460.951 221.997 462.782 223.489 464.174 225.411C465.583 227.334 466.42 229.579 466.685 232.148H459.451C459.053 230.358 458.142 228.817 456.717 227.524C455.308 226.232 453.419 225.585 451.049 225.585C448.978 225.585 447.163 226.132 445.605 227.226C444.064 228.303 442.863 229.844 442.001 231.849C441.139 233.838 440.708 236.191 440.708 238.909C440.708 241.693 441.131 244.096 441.976 246.118C442.821 248.14 444.014 249.706 445.556 250.816C447.113 251.926 448.945 252.482 451.049 252.482C452.458 252.482 453.734 252.225 454.877 251.711C456.037 251.181 457.007 250.427 457.786 249.449C458.581 248.471 459.136 247.295 459.451 245.919H466.685C466.42 248.388 465.616 250.592 464.274 252.531C462.931 254.47 461.133 255.995 458.879 257.105C456.642 258.215 454.016 258.771 450.999 258.771ZM490.716 258.771C487.137 258.771 484.013 257.95 481.345 256.31C478.677 254.669 476.605 252.374 475.13 249.424C473.655 246.474 472.918 243.027 472.918 239.083C472.918 235.122 473.655 231.659 475.13 228.692C476.605 225.726 478.677 223.423 481.345 221.782C484.013 220.141 487.137 219.321 490.716 219.321C494.296 219.321 497.42 220.141 500.088 221.782C502.756 223.423 504.827 225.726 506.302 228.692C507.777 231.659 508.515 235.122 508.515 239.083C508.515 243.027 507.777 246.474 506.302 249.424C504.827 252.374 502.756 254.669 500.088 256.31C497.42 257.95 494.296 258.771 490.716 258.771ZM490.741 252.531C493.061 252.531 494.984 251.918 496.508 250.692C498.033 249.465 499.16 247.833 499.889 245.795C500.635 243.756 501.007 241.511 501.007 239.058C501.007 236.622 500.635 234.385 499.889 232.347C499.16 230.292 498.033 228.643 496.508 227.4C494.984 226.157 493.061 225.536 490.741 225.536C488.404 225.536 486.466 226.157 484.924 227.4C483.4 228.643 482.265 230.292 481.519 232.347C480.79 234.385 480.425 236.622 480.425 239.058C480.425 241.511 480.79 243.756 481.519 245.795C482.265 247.833 483.4 249.465 484.924 250.692C486.466 251.918 488.404 252.531 490.741 252.531ZM524.243 235.33V258H516.811V219.818H523.945V226.033H524.417C525.296 224.011 526.671 222.387 528.544 221.161C530.433 219.934 532.811 219.321 535.678 219.321C538.28 219.321 540.559 219.868 542.514 220.962C544.47 222.039 545.986 223.646 547.063 225.784C548.14 227.922 548.679 230.565 548.679 233.714V258H541.246V234.609C541.246 231.841 540.525 229.679 539.084 228.121C537.642 226.546 535.662 225.759 533.143 225.759C531.419 225.759 529.886 226.132 528.544 226.878C527.218 227.624 526.166 228.717 525.387 230.159C524.625 231.584 524.243 233.308 524.243 235.33ZM576.47 219.818V225.784H555.614V219.818H576.47ZM561.207 210.67H568.64V246.789C568.64 248.231 568.855 249.316 569.286 250.045C569.717 250.758 570.272 251.247 570.952 251.512C571.648 251.761 572.402 251.885 573.214 251.885C573.81 251.885 574.332 251.844 574.78 251.761C575.227 251.678 575.575 251.612 575.824 251.562L577.166 257.702C576.735 257.867 576.122 258.033 575.327 258.199C574.531 258.381 573.537 258.481 572.344 258.497C570.388 258.53 568.565 258.182 566.875 257.453C565.184 256.724 563.817 255.597 562.773 254.072C561.729 252.548 561.207 250.634 561.207 248.33V210.67ZM584.692 258V219.818H591.876V225.884H592.273C592.969 223.829 594.196 222.213 595.952 221.036C597.726 219.843 599.731 219.246 601.968 219.246C602.432 219.246 602.979 219.263 603.609 219.296C604.255 219.329 604.76 219.371 605.125 219.42V226.53C604.827 226.447 604.296 226.356 603.534 226.256C602.772 226.14 602.009 226.082 601.247 226.082C599.491 226.082 597.924 226.455 596.549 227.201C595.19 227.93 594.113 228.949 593.317 230.259C592.522 231.551 592.124 233.026 592.124 234.683V258H584.692ZM626.646 258.771C622.884 258.771 619.644 257.967 616.926 256.359C614.225 254.735 612.137 252.457 610.662 249.523C609.204 246.574 608.475 243.118 608.475 239.158C608.475 235.247 609.204 231.8 610.662 228.817C612.137 225.834 614.192 223.505 616.827 221.832C619.478 220.158 622.577 219.321 626.124 219.321C628.278 219.321 630.366 219.677 632.388 220.39C634.41 221.103 636.224 222.221 637.832 223.746C639.439 225.27 640.707 227.251 641.635 229.687C642.563 232.106 643.027 235.048 643.027 238.511V241.146H612.676V235.578H635.744C635.744 233.623 635.346 231.891 634.551 230.383C633.755 228.858 632.637 227.657 631.195 226.778C629.77 225.9 628.096 225.461 626.173 225.461C624.085 225.461 622.262 225.975 620.705 227.002C619.164 228.013 617.97 229.339 617.125 230.979C616.297 232.603 615.882 234.368 615.882 236.274V240.624C615.882 243.176 616.33 245.347 617.225 247.137C618.136 248.927 619.404 250.294 621.028 251.239C622.652 252.167 624.549 252.631 626.72 252.631C628.129 252.631 629.413 252.432 630.573 252.034C631.733 251.62 632.736 251.007 633.581 250.195C634.426 249.383 635.073 248.38 635.52 247.187L642.555 248.455C641.991 250.526 640.981 252.341 639.522 253.898C638.08 255.44 636.266 256.641 634.078 257.503C631.907 258.348 629.43 258.771 626.646 258.771ZM680.911 258.845C678.491 258.845 676.304 258.398 674.348 257.503C672.393 256.591 670.843 255.274 669.7 253.55C668.573 251.827 668.009 249.714 668.009 247.212C668.009 245.057 668.424 243.284 669.252 241.892C670.081 240.5 671.2 239.398 672.608 238.586C674.017 237.774 675.591 237.161 677.331 236.746C679.071 236.332 680.844 236.017 682.651 235.802C684.938 235.537 686.794 235.321 688.219 235.156C689.644 234.973 690.68 234.683 691.326 234.286C691.972 233.888 692.296 233.241 692.296 232.347V232.173C692.296 230.002 691.682 228.32 690.456 227.126C689.246 225.933 687.44 225.337 685.037 225.337C682.535 225.337 680.563 225.892 679.121 227.002C677.696 228.096 676.71 229.314 676.163 230.656L669.178 229.065C670.006 226.745 671.216 224.873 672.807 223.447C674.414 222.006 676.262 220.962 678.35 220.315C680.438 219.652 682.634 219.321 684.938 219.321C686.462 219.321 688.078 219.503 689.785 219.868C691.508 220.216 693.116 220.862 694.607 221.807C696.115 222.751 697.35 224.102 698.311 225.859C699.272 227.599 699.753 229.861 699.753 232.645V258H692.494V252.78H692.196C691.716 253.741 690.995 254.686 690.034 255.614C689.072 256.542 687.838 257.312 686.33 257.925C684.822 258.539 683.015 258.845 680.911 258.845ZM682.526 252.879C684.581 252.879 686.338 252.473 687.796 251.661C689.271 250.849 690.39 249.789 691.152 248.479C691.931 247.154 692.32 245.737 692.32 244.229V239.307C692.055 239.572 691.542 239.821 690.779 240.053C690.034 240.268 689.18 240.459 688.219 240.624C687.258 240.773 686.321 240.914 685.41 241.047C684.499 241.163 683.736 241.262 683.123 241.345C681.681 241.527 680.364 241.834 679.171 242.265C677.994 242.696 677.049 243.317 676.337 244.129C675.641 244.925 675.293 245.985 675.293 247.311C675.293 249.151 675.972 250.543 677.331 251.487C678.69 252.415 680.422 252.879 682.526 252.879ZM735.43 272.318V252.059H734.983C734.536 252.871 733.889 253.799 733.044 254.843C732.215 255.887 731.072 256.799 729.614 257.577C728.155 258.356 726.266 258.746 723.946 258.746C720.864 258.746 718.113 257.959 715.693 256.384C713.29 254.793 711.401 252.531 710.026 249.598C708.667 246.648 707.987 243.11 707.987 238.984C707.987 234.857 708.675 231.327 710.05 228.394C711.442 225.461 713.348 223.215 715.768 221.658C718.187 220.1 720.93 219.321 723.996 219.321C726.366 219.321 728.271 219.719 729.713 220.514C731.171 221.293 732.298 222.205 733.094 223.249C733.906 224.293 734.536 225.212 734.983 226.008H735.604V219.818H742.863V272.318H735.43ZM725.587 252.407C727.724 252.407 729.531 251.844 731.006 250.717C732.497 249.573 733.624 247.991 734.386 245.969C735.165 243.947 735.555 241.594 735.555 238.909C735.555 236.258 735.174 233.937 734.411 231.949C733.649 229.96 732.53 228.411 731.055 227.3C729.58 226.19 727.758 225.635 725.587 225.635C723.349 225.635 721.485 226.215 719.994 227.375C718.502 228.535 717.375 230.118 716.613 232.123C715.867 234.128 715.494 236.39 715.494 238.909C715.494 241.461 715.875 243.756 716.638 245.795C717.4 247.833 718.527 249.449 720.018 250.642C721.527 251.819 723.383 252.407 725.587 252.407ZM777.043 242.165V219.818H784.5V258H777.192V251.388H776.794C775.916 253.426 774.507 255.125 772.568 256.484C770.646 257.826 768.251 258.497 765.384 258.497C762.932 258.497 760.761 257.959 758.871 256.881C756.999 255.788 755.524 254.172 754.447 252.034C753.386 249.896 752.856 247.253 752.856 244.104V219.818H760.288V243.21C760.288 245.811 761.009 247.883 762.451 249.424C763.893 250.965 765.765 251.736 768.069 251.736C769.461 251.736 770.845 251.388 772.22 250.692C773.612 249.996 774.764 248.943 775.675 247.535C776.603 246.126 777.059 244.336 777.043 242.165ZM794.487 258V219.818H801.919V258H794.487ZM798.24 213.927C796.948 213.927 795.837 213.496 794.909 212.634C793.998 211.756 793.542 210.712 793.542 209.502C793.542 208.276 793.998 207.232 794.909 206.37C795.837 205.492 796.948 205.053 798.24 205.053C799.533 205.053 800.635 205.492 801.546 206.37C802.474 207.232 802.938 208.276 802.938 209.502C802.938 210.712 802.474 211.756 801.546 212.634C800.635 213.496 799.533 213.927 798.24 213.927ZM821.29 207.091L820.643 243.359H813.758L813.112 207.091H821.29ZM817.213 258.472C815.838 258.472 814.661 257.992 813.683 257.031C812.705 256.053 812.225 254.876 812.241 253.501C812.225 252.142 812.705 250.982 813.683 250.021C814.661 249.043 815.838 248.554 817.213 248.554C818.555 248.554 819.715 249.043 820.693 250.021C821.671 250.982 822.168 252.142 822.185 253.501C822.168 254.412 821.928 255.249 821.464 256.011C821.016 256.757 820.42 257.354 819.674 257.801C818.928 258.249 818.108 258.472 817.213 258.472Z" fill="white"/>
</svg>
